<svg xmlns="http://www.w3.org/2000/svg" width="256" height="256" viewBox="0 0 100 100"><rect width="100" height="100" rx="20" fill="#8dab7f"></rect><path d="M15.79 66.82L3.54 66.82L3.54 63.86L7.36 63.21L7.36 36.32L3.54 35.67L3.54 32.69L7.36 32.69L12.02 32.69L28.75 59.29L28.89 59.25L28.89 36.32L24.70 35.67L24.70 32.69L33.14 32.69L36.96 32.69L36.96 35.67L33.14 36.32L33.14 66.82L28.92 66.82L11.74 40.07L11.60 40.12L11.60 63.21L15.79 63.86L15.79 66.82ZM54.39 66.82L40.80 66.82L40.80 63.86L44.62 63.21L44.62 36.32L40.80 35.67L40.80 32.69L44.62 32.69L54.16 32.69Q58.68 32.69 62.05 34.85Q65.41 37.00 67.29 40.78Q69.16 44.55 69.16 49.40L69.16 49.40L69.16 50.13Q69.16 54.86 67.36 58.65Q65.55 62.43 62.23 64.63Q58.92 66.82 54.39 66.82L54.39 66.82ZM49.24 36.32L49.24 63.21L54.16 63.21Q57.39 63.21 59.71 61.44Q62.04 59.67 63.29 56.70Q64.54 53.74 64.54 50.13L64.54 50.13L64.54 49.36Q64.54 45.63 63.29 42.69Q62.04 39.75 59.71 38.04Q57.39 36.32 54.16 36.32L54.16 36.32L49.24 36.32ZM82.47 67.31L82.47 67.31Q79.64 67.31 77.33 66.18Q75.02 65.06 73.63 62.79Q72.23 60.51 72.09 57.09L72.09 57.09L72.14 56.95L76.57 56.95Q76.66 60.39 78.15 62.01Q79.64 63.63 82.40 63.63L82.40 63.63Q84.35 63.63 85.59 62.80Q86.83 61.96 87.43 60.50Q88.03 59.04 88.03 57.14L88.03 57.14L88.03 36.32L83.48 35.71L83.48 32.69L96.46 32.69L96.46 35.67L92.64 36.32L92.64 57.14Q92.64 60.18 91.48 62.48Q90.32 64.78 88.06 66.04Q85.80 67.31 82.47 67.31Z" fill="#394032"></path></svg>