<?xml version="1.0" encoding="UTF-8"?><svg id="Layer_1" xmlns="http://www.w3.org/2000/svg" width="1366" height="768" viewBox="0 0 1366 768"><defs><style>.cls-1{fill:#8ea67c;}.cls-2{fill:#d9f2a2;}.cls-3{fill:#3a4032;}.cls-4{fill:#4f7373;}</style></defs><g><rect class="cls-1" x=".5" y="-.5" width="1365" height="767"/><path class="cls-3" d="m1365,0v766H1V0h1364m1-1H0v768h1366V-1h0Z"/></g><path class="cls-3" d="m1337.98,736.34c-23.12-15.87-26.46-38.67-23.91-65.14,0-26.9.42-53.91-1.52-80.73-2.78-14.55-4.62-26.16-6.19-38.29-1.34-23.64-2.7-47.33-6.98-70.66-10.57-37.97-26.06-74.98-46.32-108.83-19.48-30.75-42.19-60.84-80.55-66.72-19.96-2.85-44.93-2.3-58.36,15.01-17.85,23.73-21.77,56.96-12.77,84.97,6.94,18.82,18.13,36.28,31.02,51.56,25.93,24.62,59.23,43.83,77.65,75.23-7.23-12.07-66.72,5.79-81.47-3.96-10.25-6.77-14.72-19.24-20.08-30.29-12.24-25.21-32.32-46.54-56.74-60.29-13.77-7.75-30.45-13.15-45.24-7.6-20.71,7.77-28.67,33.45-27.38,55.54,2.37,40.55,27.97,78.92,64.49,96.69,46.39,22.56,117.22,8.03,156.75,45.61-21.01,19.86-43.77,29.74-50.26,62.39-5.48,27.59,4.34,57.72,25.04,76.77-10.88-24.92-21.98-52.35-14.62-78.53,6.35-22.61,25.68-39.62,46.93-49.62,10.59-4.98,22.8-9.41,28.12-19.84,2.96-5.81,3.21-12.6,3.02-19.12-.84-27.98-8.92-56.01-23.63-79.87-20.95-28.2-51.78-47.07-77.15-70.84-15.55-19.89-32.44-44.21-32.08-69.84-.74-19.09,4.23-39.06,15.42-53.57,12.22-14.96,32.76-13.06,49.27-11.33,49.69,8.39,77.93,65.71,96.02,106.47,15.61,34.03,26.28,70.27,27.62,109.11.42,20.57,2.67,35.57,6.68,56.88,2.6,12.37,1.24,32.02,2.23,46.45,1.09,51.37-12.89,94.18,47.6,111.11-4.4-2.61-8.41-5.81-12.6-8.73Zm-115.35-171.52c2.75,15.22,5.49,29.62,5.62,45.49-3.29,11.24-16.02,13.78-24.15,17.97-8.29-12.64-23.49-23.73-38.15-27.49-10.25-2.22-20.43-5.02-30.83-6.34-8.42-.57-17.1.14-22.25-1.33-10.3-2.47-19.98-7.24-30.48-8.88-12.18-1.54-22.62-.78-33.62-8.11-11.12-7.63-24.8-15.22-33.88-24.38-23.88-28.13-36.46-65.54-20.46-100.25,18.24-38.15,70.27,4.47,89.52,23.78,8.17,9.47,15.7,24.04,21.62,35.83,6.4,18.37,15.23,34.13,37.47,31.11,22.47-1.5,44.81-5.84,67.08-9.37,4.83,9.82,7.61,16.63,12.51,31.95Z"/><path class="cls-3" d="m1154.75,612.63c-12.38,7.3-26.38,11.79-37.68,20.9-5.61,4.92-18.4,13.28-28.07,14.95-6.22,1.63-7.68,1.13-15.04,2.06-19.73,1.6-34.27,18.18-43.14,34.6-12.63,17.22-14.17,39.6-34.1,50.28-15.74,8.58-29.88,7.75-49.72,7.62-14.58-.62-35.44,1.17-48.67.06-9.93-2.22-20.16-12.17-25.5-19.24-2.43-6.52,7.31-16.09,10.83-19.12,12.35-8.44,27.32-9.25,41.24-14.21,36.63-12.98,45.48-52.36,42.73-87.19-1.28-22.73,32.59-32.38,51.78-35.08-19.68-.71-44.24,3.83-56.05,21.11-6.44,11.69-2.7,26.04-3.94,38.83-1.08,15.64-10.91,39.88-26.6,48.08-14.09,9.89-34.39,8.82-49.83,17.25-8.53,4.55-15.35,12.4-18.99,21.32-7.44,16.12,16.15,30.02,28.29,35.82,16.96,3.47,34.62-.3,51.85.78,19.07.21,38.97,1.33,56.29-8.15,14.99-7.47,22.89-23.49,28.07-37.25,3.22-7.91,6.92-13.01,11.19-20.73,23.17-39.53,46.91-15.7,75.12-38.78,11.35-10.07,20.51-17.69,31.42-25.31,3.93-3.67,10.62-6.5,11.46-12.19-.33,1.61-1.47,2.9-2.94,3.59Z"/><path class="cls-3" d="m869.88,760.29c-5.07-6.5-14.54-21.14-16.29-25.27-2.78-6.12-2.14-13.24-5.24-19.27-7.45-15.92-28.85-19.52-44.37-24.09-12.58-2.13-26.02-36.53-29.99-48.35-6.68-39.46,7.11-56.74-36.52-79.11-17.13-8.57-27.59-25.3-43.22-35.81-19.75-13.75-45.53-32.12-58.73-52.77-33.91-56.89-23.15-106.95,47.06-63.15,17.75,11.9,29.7,38.05,40.36,57.45,4.73,7.48,10.18,14.53,14.14,22.49,9.24,22.68,21.59,44.39,41.87,58.97,12.03,8.84,27.99,12.97,42.57,8.94,17.95-6.27,10.02-27.06,10.41-41.37-1.35-35.99-20.8-69.6-48.07-92.41-18.44-18.68-13.2-58.82-7.09-82.45,8.95-29.22,25.38-54.04,54.22-65.15,51.65-22.44,48.24-62.45-12.97-54.46-55.96,3.52-101.26,52.65-157.6,46.31-4.39-1.57-5.48-3.05-7.84-7.64-10.94-21.08.26-46.15,13.61-64.68,7.32-13.03,15.57-25.49,23.64-38.06,7.01-9.37,9.68-23.92,0-32.46-24.63-15.75-76.93,2.75-102.82,11.98-16.94,8.76-33.29,19.31-47.21,32.41-8.2,8.84-14.33,19.38-18.93,30.48-7.87,14.87-11.99,30.79-9.37,47.62.48,29.61,25.19,109.85-35.62,83.03-16.1-6.02-21.72-12.99-26.71-30.23-8.13-17.45-8.15-37.22-15.37-54.86-15.08-32.03-44.26-32.47-64.13-4.1-47.91,59.8,8.17,116.32,55.65,153,20.11,12.7,40.44,24.88,58.27,40.73,18.2,11.97,29.69,23.23,43.9,38.05,13.53,19.96,44.75,17.64,56.7,36.84,5.13,8.57,4.26,20.7.5,28.03-23.26,2.24-48.24-.65-71.71,1.64-24.12,1.78-41.64,25.08-30.84,48.15,8.65,14.37,25.62,21.85,41.75,23.85-.41-.06-.83-.11-1.24-.17,19.33,2.24,38.82,6.5,58.34,4.85,22.68-.86,47.02-27.36,65.37-5.39,39.38,67.97-3.87,82.81-30.56,139.18,11.9-19.61,30.46-34.13,43.06-53.14,11.6-19.32,16.1-45.04,6.87-65.27-4.36-9.79-7.05-20.83-14.42-28.92-23.87-24.82-50.36,5.76-76.86,5.17-19.8-.58-34.85-3.28-55.92-6.66-12.67-3.76-23.24-9.02-28.69-19.63-3.5-11.24.37-23.47,10.99-28.54,17.62-8.76,42.65-3.36,62.78-4.7,8.86-1.04,22.59,3.39,29.27-4.22,7.97-13.9,6.56-32.85-4.2-44.95-12.18-14.09-37.14-15.55-48.56-26.94-14.15-14.78-28.21-29.91-45.43-41.19-11.76-7.59-18.95-16.25-32.36-24.74-11.53-7.61-23.76-14.18-34.9-22.34-38.88-31.84-90.96-79.05-54.51-131.81,7.97-13.26,26.82-31.05,40.57-19.26,16.76,11.8,17.15,32.66,22.04,52.09,4.07,11.96,7.76,24.2,13,35.7,10.3,14.8,40.01,28.27,57.98,22.29,37.73-17.93,8.85-81.19,13.39-114.9,4.3-18.59,14.26-40.16,26.59-53.72,8.83-8.25,14.62-11.88,24.39-18.82,11.91-7,20.22-12.98,32.32-15.73,21.62-7.5,43.97-13.38,67.04-12.57,31.47.13,13.98,25.98,3.39,41-16.25,28.17-43.63,59.73-28.52,93.96,18.07,40.99,105.06-13.33,134.31-22.62,19.83-7.05,68.76-20.27,79.65.07-6.79,19.81-27.59,25.55-43.88,34.4-43.54,24.63-57.75,82.17-51.47,128.86,3.85,26.78,30.24,36.37,42.1,59,11.06,18.88,17.43,38.57,17.18,60.26.35,7.41,2.57,21.41-.99,24.48-18.64,9.53-38.21-2.89-50.42-17.07-16.55-15.14-20.1-34.94-31.2-53.16-17.79-24.14-26.28-55.35-51.37-73.66-76.49-49.72-101.99,5.44-62.9,72.57,13.15,21.62,33.73,36.56,53.52,51.62,18.64,11.06,29.95,29.58,48.66,40.87,40.86,19.91,30.92,30.23,34.71,68.68,4.41,19.6,15.35,44.83,30.15,58.55,13.58,7.09,31.17,7.12,43.2,17.4,5.95,5.79,5.68,14.8,9.5,21.75,8.07,11.73,18.1,24.27,31.48,29.93-2.92-1.7-5.24-4.29-7.47-6.79Z"/><g><path class="cls-3" d="m513.68,749.58c-14.19-27.31-34.47-22.4-57.92-32.48-15.09-4.6-18-25.96-10.39-36.76,17.36-16.12,30.58-30.24,12.31-51.64-9.25-11.41-21.52-21.92-35.76-26.23-20.86-2.67-46.24,3.41-56.49,23.52-4.65,11.01-6.53,18-12.76,27.21-8.73,10.67-25.48,24.94-36.64,30.7-11.39-1.3-26.32-11.14-35.82-20.58-2.38-3.63-3.15-3.06.01-9.13,9.21-21.1,24.83-21.43,38.18-36.1,11.21-18.57,1.76-41.21-13.32-54.48-12.19-15.39-20.15-19.46-37.64-24.88-14.09-6.43-17.92-18.78-26.33-29.98-3.59-5.5-6.3-8.86-7.12-14.06.46-7.3,1.73-14.55,2.6-21.8,2.93-6.3,8.59-11.69,14.28-15.55,23.5,26.51,53.78,51.1,90.28,54.43,26.11,3.55,58.94-13.02,50.47-43.51-1-20.83-16.28-36.21-30.07-50.24-7.65-7.12-17.66-10.8-26.21-16.63-4.58-3.11-9.61-5.66-14.99-7.01-12.15-2.45-20.08-2.44-25.64-9.68-4.2-4.71-10.3-15.08-12.34-21.96-9.25-23.75-11.48-47.89-7.12-72.19,2.94-17.73,1.68-35.69,3.2-53.52,3.8-47.37,33.57-118.84-.27-160.79-15.62-13.01-35.99-20.5-55.92-23.59-19.54-1.54-38.2,4.79-56.13,11.77-30.82,11.52-73.49,26.72-75.82,64.97-.5,13.74-.02,28.31,7.3,40.41,10.2,15.09,14.51,22.64,30.83,32.78,9.09,5.64,18.13,14.74,16.6,25.33-1.73,11.93-15.57,17.78-27.56,19.07-37.39,4.03-52.03,20.22-56.74,58.33-1.93,15.58,1.06,32.48,11.5,44.2,10.44,11.72,29.33,16.41,42.51,7.87,9.18-5.95,17.31-17.9,27.78-14.71,7.74,2.36,10.49,11.7,12.03,19.65,1.96,10.05,3.87,20.72.3,30.31-4.71,12.64-17.49,19.98-28.52,27.75-44.06,31-71.17,84.72-69.93,138.58.57,24.94,8.18,51.7,28.3,66.45,20.13,14.75,54.46,10.12,63.36-13.19,6.88-18.01-3.03-37.59-11.52-54.9-8.49-17.31-15.46-39.21-4.02-54.73,11.83-16.06,38.24-14.58,53.15-1.33,14.91,13.25,20.47,34.12,22.33,53.99,3.7,39.53-7.38,84.34-41.14,105.24-25.31,15.67-61.21,16.98-77.03,42.2-10.26,16.36-7.99,37.85-.83,55.78-2.06-16.11-2.61-33.5,5.67-47.47,15.51-26.16,52.37-27.63,78.49-43.22,37.85-22.58,49.02-73.36,43.17-117.05-2.38-17.77-7.21-35.8-18.34-49.85-11.13-14.05-29.67-23.31-47.16-19.38-27.64,6.2-39.34,42.82-28.29,68.9,7.94,18.74,24.74,37.33,17.78,56.45-6.48,17.81-32.04,22.3-48.04,12.14s-23.45-29.75-25.88-48.54c-5.7-44.06,11.61-89.92,43.21-121.15,13.32-13.17,28.99-23.93,41.18-38.15s20.73-33.48,15.94-51.58c-4.79-18.1-27.27-31.34-43.33-21.71-7.88,4.72-13.12,13.83-22,16.18-8.61,2.29-17.84-3.02-22.68-10.5s-6.15-16.66-6.82-25.55c-1.87-25.08,3.98-55.42,27.28-64.9,12.79-5.2,28.49-2.75,39.6-10.95,9.02-6.66,12.38-19.96,7.6-30.11-4.99-10.59-15.76-14.84-23.86-22.38-8.99-8.36-14.13-17.96-20.31-28.53-4.96-13.26-4.15-22.09-3.61-34.73,3.16-25.24,27.93-35.47,47.38-46.03,21.28-7.82,45.26-19.68,69.55-19.94,19.42.09,47.93,11.81,59.44,24.89,19.41,31.33,7.07,85.47-.37,119.05-4.08,20.8-6.06,41.85-5.89,63.02-4.3,39.57-9.33,66.63,8.04,104.88,11.84,25.6,20.44,26.43,45.84,31.83,10.08,5.22,19.65,11.51,29.45,17.27,7.49,6.26,21.52,21.25,26.74,31.99,3.78,9.98,6.3,22.28,4.09,31.58-8.43,20.23-41.26,22.3-60.87,14.3-48.62-15.62-100.37-74.71-119.32-120.89-3.79-9.25-6.56-19.14-6.04-29.13.77-14.86,8.63-28.31,16.43-40.98s15.97-25.83,17.48-40.63-5.92-31.7-20.24-35.73c-6.63-1.86-13.84-.75-20.13,2.05-14.9,6.64-24.59,22.54-25.79,38.8-1.21,16.27,5.32,32.53,15.78,45.04,3.09,3.7,6.61,7.26,8.16,11.82,1.56,4.56.95,9.53.75,14.35-1.8,43.83,30.61,80.71,60.95,112.4-12.3,6.98-20.65,20.47-21.43,34.59-1.01,18.37,11.97,33.25,23.05,46.47,8.32,10.09,22.06,10.86,32.65,17.17,11.02,11.51,21.56,20.33,28.4,35.3,5.04,21.06-2.83,26.26-21.82,36.88-8.12,5.57-13.75,13.93-18.54,22.38-7.38,9.61-1.46,20.72,7.52,26.64,7.15,6.06,15.35,10.71,23.94,14.4,17.48,9.47,27.05-5.79,41.43-15.62,13.13-9.98,21.99-23.43,26.52-39.17,1.95-5.43,1.74-5.93,4.86-10.46,15.22-16.5,42.98-19.89,58.57-5.05,14.28,10.82,32.26,29.53,11.98,44.21-19.49,13.01-22.48,45.57-1.38,58.5,13.47,9.53,33.3,8.39,47.28,14.75,6.09,2.79,8.09,4.2,12.45,9.43,6.91,6.43,10.58,9.94,7.67,20.2,2.92-5.28,4.76-12.28.52-17.42ZM192.51,330.03c-8.8-14.01-16.76-29.88-21.06-45.95.58-8.38,1.03-13.85,3.33-22.63,1.36-4.03,5.58-11.52,8.64-14.49,1.16-1.07,12.82-7.63,14.52-7.97,11.55-4.8,20.1,3.78,23.43,13.86,8.33,28.25-18.48,53.53-28.87,77.17Z"/><path class="cls-3" d="m147.56,344.71c.29.4.43.58.49.64-.16-.21-.32-.43-.49-.64Z"/></g><path class="cls-2" d="m966.66,370.02c-2.78-3.99-6.81-6.79-10.6-9.75-8.25-6.62-17.58-12.63-28.4-13.44-4.8-.59-9.62-.22-14.43.06-6.32.3-12.63.78-18.89,1.79-8.91,1.25-18.02,2.92-25.51,8.24-8.23,5.5-15.34,12.81-20.39,21.34-2.51,4.4-4.51,9.07-6.83,13.58-2.88,6.02-5.31,12.28-6.69,18.82-1.39,7.36-2.04,14.86-2.22,22.35.03,10.7.16,21.57,2.63,32.03,1.71,7.39,4.88,14.44,8.67,20.98,3.93,6.38,8.79,12.11,13.02,18.28,3.88,5.9,4.35,9.21,7.46,17.36,3.37,8.38,3.83,10.39,3.63,18.75-.03,7.06.06,13.1-.83,16.79-1.17,5.54-3.77,11.7-4.66,13.54-4.18,7.2-7.61,11.39-9.47,13.64-3.84,4.12-11.97,8.82-21.74,14.43-6.29,3.74-13.74,6.62-17.75,13.1-3.67,5.97-3.25,13.35-2.66,20.07.28,2.24.64,4.51,1.51,6.6.13.24.27.48.41.72-.29.44-.58.89-.86,1.34-2.45,4.19-6.46,8.11-6.32,13.25.05,3.8,2.55,6.87,4.8,9.71,3.24,4.27,8.4,6.22,13.1,8.41,11.52,5.06,24.91,11.57,37.46,6.36,5.26-2.28,9.78-5.93,14.46-9.19,6.64-4.16,12.06-9.78,17.61-15.24,2.95-2.9,6.17-5.52,8.96-8.58,3.74-4.26,7.12-8.81,10.54-13.32,4.21-6.32,9.05-12.32,12.23-19.26,2.65-5.16,3.99-10.76,5.03-16.43,1.01-5.15,2.24-10.26,3.06-15.45.77-4.99.75-10.05.88-15.08.33-4.73.81-9.45,1.36-14.16,1.39-12.68.96-25.45.18-38.15-.07-10.23-.51-20.53.52-30.72.85-5.54,2.51-10.92,4-16.31,1.57-5.73,3.3-11.4,5.4-16.95,3.02-8.32,4.04-12.31,7.13-18.11,5.47-9.95,10.73-20.01,15.05-30.53,4.81-9.61,5.99-21.93-.84-30.88Zm-8.36,24.44c-.05.13-.11.27-.16.4-.1.24-.21.48-.31.72-1.65,3.7-3.17,7.46-4.95,11.1-4,8.86-9.42,17.01-13.19,25.98-3.95,10.49-7.83,21.03-10.75,31.86-1.56,5.64-3.29,11.27-3.98,17.1-1.22,9.32-.61,18.76-.78,28.14.11,6.96.86,13.89.78,20.86.39,10.93-1.03,21.76-2.03,32.61-.46,5-.2,10.05-.76,15.05-.75,4.78-1.88,9.49-2.8,14.24-.95,4.23-1.52,8.6-3.17,12.63-.49,1.08-1.87,4.17-2.35,4.99-2.48,4.43-5.43,8.57-8.32,12.73-5.09,7.22-6.43,9.3-12.98,16.45-5.51,5-16.44,16.03-18.35,17.31-5.81,3.94-11.28,8.51-17.58,11.66-2.83,1.03-2.65.66-4.01.87-1.44.1-2.88.09-4.32-.05-8.59-1.36-16.78-4.35-25.07-6.89-5.99-1.98-6.52-2.16-11.42-7.5-.08-.12-.16-.23-.22-.36-.05-.09-.09-.19-.14-.28-.08-.21-.16-.43-.23-.65-.46-1.21-.34-2.21.83-5.4.73-2.13,1.54-4.33,2.32-6.41.49.74.99,1.47,1.46,2.22-.35-.98-.79-1.94-1.2-2.91.27-.71.53-1.4.78-2.06,1.22-2.28,1.62-4.35-.33-6.31-.24-.24-.47-.51-.8-.61.56.59.92,1.31,1.14,2.08.24,1.17-.3,2.5-1.09,3.39-.23.28-.42.57-.63.86-.09-.36-.17-.73-.23-1.1-.51-5.37.26-10.84,1.48-16.08,2.66-9.95,10.4-11,17.67-14.36,8.1-3.57,16.32-7.14,23.42-12.51,4.16-2.72,7.29-6.56,10.04-10.64,5.09-6.21,8.17-13.69,10.38-21.34,2.39-9.13,1.73-18.7,1.77-28.04-.04-6.65-3.07-12.67-5.16-18.83-1.64-4.5-3.23-9.05-5.36-13.34-1.45-2.63-3.29-5.03-5.04-7.47-13.68-17.28-18.3-28.97-19.17-48.2-.47-9.55-.41-19.16.83-28.66.01-.1.02-.19.04-.29.78-5.67,2.4-11.19,4.55-16.49,2.43-5.44,5.11-10.78,7.78-16.1,3.75-6.37,4.23-6.92,9.22-12.17,5.58-5.37,6.92-6.44,14.36-10.34.18-.08.37-.16.55-.24.04-.02.08-.03.12-.05,3.72-1.36,7.67-2.01,11.55-2.74,9.99-1.88,27.41-3.25,35.66-2.07,11.05,1.99,18,9.18,23.71,13.42.93.74,1.83,1.5,2.73,2.27.57.33,2.15,2.15,2.89,3.02,2.73,3.96,2.35,5.12,2.86,6.81.3,5.46.18,5.4-2.02,11.76Z"/><g><path class="cls-2" d="m1084.24,177.98c.15-.36.15-.42,0,0h0Z"/><path class="cls-2" d="m1318.04,167.37c-1.9-6.05-3.44-12.53-7.7-17.44-4.28-4.67-11.1-4.59-16.97-4.81-4.8-.13-9.6-.11-14.4-.26-16.59-1.05-26.6-2.17-44.03-5.68-9.57-1.76-21.09-2.17-26.79-3.17-7.6-1.07-14.92-3.54-22.21-5.84-6.44-2.21-9.32-2.77-13.17-5.04-9.63-5.32-14.26-15.39-15.02-24.76-.52-5.77.39-11.55.93-17.29.86-6.69.49-8.27,1.85-13.29,3.1-9.78,6.17-16.51,9.03-23.98,1.07-2.77,1.38-5.76,2.58-8.48.87-2.3.77-1.91,3.01-5.8,2.03-3.05,4.44-5.86,6.17-9.1,3.65-7.92-1.63-16.48-5.09-23.54-.34-.61-.79-1.18-1.36-1.58.84.88,1.04,2.1,1.38,3.22,1.26,5.17,3.07,9.82,2.31,14.93-.1.33-.25,2.78-1.08,3.88-2.49,3.42-5.93,6.01-8.52,9.35-5.83,7.16-6.03,12.68-9.73,19.05-3.17,7.09-6.59,14.19-8.28,21.81-1.25,7.57-1.03,9.32-2.13,17.36-2.9,19.91,1.99,38.91,21.2,48.37,4.77,2.23,9.86,3.64,14.85,5.3,6.61,2.06,13.25,4.21,20.12,5.21,7.34,1.2,14.76,1.57,22.14,2.38,5.7.82,11.33,2.1,17.03,2.91,6.97.89,13.93,1.86,20.92,2.55,5.11.29,10.22.73,15.34.72,7.01-.02,17.49-.45,20.68.27.49.11.96.25,1.43.42.29.14.68.35,1.04.56.13.14.39.39.64.68.08.11.18.25.3.42,2.11,3.41,1.31,1.97,2.69,5.97,1.84,5.01,2.85,10.25,4.14,15.41,1.25,5.36,3.07,10.15,2.64,12.62-.02.12-.03.22-.04.31-.43,2.35-.81,4.71-1.55,6.99-1.69,5.14-3.7,10.17-5.4,15.31-3.27,10.96-7.12,17.24-12.08,28.97-1.53,5.15-7.55,13.04-11.69,20.57-3.06,5.74-4.84,11.46-6.54,14.88-2.75,5.16-4.58,10.67-6.27,16.23-.39-4.51-1.19-8.99-2.25-13.4-1.86-7.47-3.9-15.55-9.53-21.15-4.3-4.09-9.38-7.26-14.5-10.22-5.72-3.46-7.69-3.67-12.52-5.33-8.02-2.92-16.44-4.59-24.99-4.48-5.96-.2-11.94-.04-17.83,1.02-11.97,2.27-22.04,5.25-29.28,3.41-5.4-1.18-10.35-3.75-15.52-5.62-6.22-2.47-12.64-4.33-19.24-5.46-6.55-1.51-7.5-1.85-12.3-4.39-4.62-2.64-4.02-2.14-7.77-5.81-3.43-3.7-2.79-3.98-6.03-8.64-3.51-4.61-5.97-9.89-8.69-14.98-2.84-6.23-4.33-7.96-5.5-13.27-.14-.83-.71-3.44-.49-6.76.03-.12.08-.26.15-.48.06-.18.1-.3.14-.41-.05.12-.12.28-.2.47.08-.56,1.15-2.25,1.6-2.96,4.77-5.48,8.58-6.74,15.3-6.98,7.41.02,10.51,1.08,16.73,4.34,4.77,2.49,9.69,4.66,14.49,7.05,4.95,2.79,9.71,5.88,14.56,8.83,10.81,6.87,22.58,14.48,35.96,13.35,4.87-.53,15.92-1.44,16.94-7.23,1.18-8.35-10.49-19.71-16.02-25.33-3.95-4.19-9.03-7.31-14.81-8.05-4.55-.44-14.65-2.74-19.18-5.15-4.53-2.15-8.77-4.9-13.46-6.7-4.39-1.73-9.07-2.54-13.51-4.16-10.65-4.56-17.53-6.16-26.33-11.35-.96-.5-9.55-8.39-13.61-11.35-6.02-4.05-12.1-8-18.25-11.83-5.61-3.55-6.76-4.86-9.94-9.41-6.39-8.77-9.83-21.21-6.66-29.2,1.39-3.08,6.89-11.72,11.88-15.95,7.09-5.8,14.5-11.75,21.31-16.56,7.08-4.93,11.89-5.93,20.85-8.65,6.02-.98,14.81-.69,23.45,2.41.72.02,7.71,3.72,11.17,5.86,6.9,3.36,14.79-.84,20.03-5.47,3.05-2.59,4.18-6.64,6.9-9.48,2.17-2.32,4.43-4.54,6.55-6.91,1.43-1.68,3.11-3.3,3.79-5.44.5-1.88-.37-3.83.26-5.68.3-.88.7-1.71,1.09-2.55.18-.55.35-1.1.8-1.52-.04.03-.09.05-.13.08-.5.25-.7.8-.98,1.26-.91,1.24-1.92,2.51-2.27,4.04-.22,1.28-.1,2.55-.67,3.72-.36.87-1.16,1.42-1.8,2.07-3.04,2.66-5.47,4.23-8.83,6.98-3.12,2.38-4.33,4.5-6.09,6.7-2.26,2.36-3.37,3.36-7.29,5.04-1.58.68-4.81,1.77-7.22,1.03-1.15-.61-2.1-1.52-3.24-2.15-10.5-7.05-23.57-9.56-36.02-7.72-2.88.38-5.58,1.46-8.29,2.46-3.8,1.21-7.56,2.6-11.09,4.47-10.27,6.18-16.42,12.07-24.8,18.35-4.28,3.28-7.73,7.46-10.92,11.78-2.84,3.84-5.45,8.02-6.69,12.68-2.39,14.08,3.8,28.3,13.04,38.72,3.96,4.06,9.06,6.78,13.72,9.94,4.02,2.76,8.14,5.38,12.13,8.19.07.05.11.08.17.12,2.15,1.7,4.08,3.67,6.2,5.42,2.69,2.3,5.27,4.78,8.28,6.67,4.4,2.45,9.13,4.26,13.78,6.16,6.93,2.59,13.65,5.78,20.84,7.58,8.28,1.7,13.46,6.6,23.13,10.13,2.82,1.07,4.57,1.57,9.56,2.69,3.03.69,6.14.88,9.14,1.7,2.91,1.01,1.57.24,4.53,2.17,4.64,3.86,11.04,11.14,12.24,12.79,1.98,2.77,3.24,4.67,4.02,6.4-.78.25-1.63.51-2.01.57-4.03.86-2.48.54-5.39.86-6.05.26-6.06.19-11.31-1.17-5.15-1.59-4.8-1.43-9.28-3.8-7.9-4.37-15.48-9.27-23.26-13.83-3.18-1.98-6.65-3.34-10.03-4.92-4.72-2.16-9.23-4.78-14.07-6.64-10.76-3.88-24.21-3.57-32.91,4.63-4.62,3.94-7.33,9.9-6.31,15.99.24,5.83,2.66,11.14,5.06,16.36,3.33,7.24,6.94,14.36,11.4,20.97,4.26,8.09,12.11,15.7,25.01,19.82,5.44,1.6,11.11,2.25,16.51,4.01,6.55,2.2,12.88,4.99,19.39,7.28,5.51,1.77,11.41,2.36,17.14,1.44,11.51-1.5,20.87-4.9,29.73-4.91,11.55-.18,17.61-.24,27.71,3.1,3.31,1.01,6.73,1.63,9.98,2.82.11.04.22.09.33.13.08.04.16.07.24.11,2.66,1.28,5.35,2.49,7.96,3.88,6.52,3.55,10.35,5.33,13.99,11.75,4.28,8.08,7.55,16.77,9.55,25.71-.24.79-.47,1.59-.71,2.38-2.03,7.54-4.57,15.25-3.16,23.14,1.1,6.88,3.07,13.8,6.7,19.79,5.07,8.24,11.18,15.92,18.55,22.22-6.49-8.35-11.77-17.71-15.56-27.58-1.03-2.83-1.47-5.81-1.99-8.76-.65-3.95-.72-3.63-.83-7.88-.37-5.49,1.84-10.82,3.98-17.99,1.53-4.61,2.83-9.31,4.54-13.85.99-2.23,2.2-4.35,3.14-6.59,2.93-6.19,3.11-8.31,6.83-14.82,2.73-4.77,6.16-9.09,8.91-13.84,2.16-4.07,3.75-8.42,5.84-12.53,4.45-8.82,8.09-18.01,11.16-27.39,2.67-7.6,6.16-15.27,6.1-23.47-.96-7.31-3.75-14.24-5.24-21.46Z"/></g><g><path class="cls-2" d="m1049.84-4s-.04.02-.05.04c-.05,2.35-1.08,4.66-3.21,5.91-2.44,1.52-4.68,3.33-7.09,4.9-3.07,1.6-5.98,3.46-8.61,5.67-1.63,1.32-3.73,1.93-5.59,2.88-2.1.93-4,2.2-5.93,3.39-6.09,3.58-10.85,8.66-16.15,13.18-3.34,3.21-6.45,4.48-11.81,8.38-3.29,2.59-6.29,5.85-7.91,9.68-1.37,3.14-1.76,6.57-2.38,9.9-1.32,6.69-2.51,13.41-3.71,20.12-2.71,12.69-7.72,25.53-5.47,38.65.34,3.26,1.73,6.25,3.18,9.17.69,1.69,1.32,3.41,1.79,5.18,1.24,4.71,2.28,9.46,3.15,14.24.77,4.72,2.14,9.32,3.27,13.96.21,1.93.15,3.87-.06,5.8-.62,5.59-1.2,11.2-1.31,16.82-.13,6.85-.13,7.39-1.63,13.37-3.76,13.6-6.09,22.52-12.88,33.34-3.89,5.8-9,11.4-15.19,18.62-5.37,6.54-11.55,12.37-16.99,18.86-3.73,4.02-6.93,8.47-10.74,12.42-2.94,2.85-6.14,5.43-9.02,8.34-8.46,9.03-13.76,14.59-23.7,19.51-3.86,2.64-10.92,3.12-18.13,4.53-5.4.95-10.49,3.03-15.21,5.69-5,2.63-9.58,6.01-14.83,8.2-1.22.46-2.45.9-3.71,1.23-1.24.36-2.5.63-3.78.82-2.95.3-4.65.2-5.77-.09.14-.67.34-1.56.54-1.97,1.35-3.78.91-2.83,3.29-7.46,1.92-3.72,5.82-9.49,6.01-9.42,2.87-3.22,6.48-5.73,9.62-8.69,6.57-6.18,12.04-13.29,17.74-20.19,8.74-10.32,18.65-19.61,28.38-29.03,7.01-7.15,14.55-14.18,19.11-23.11,3.57-6.99,5.83-14.49,8.62-21.78,2.85-7.61,5.65-15.23,8.1-22.96,3.58-11.39,8.47-22.54,9.62-34.49.53-7.41.16-14.92-1.4-22.21-2.34-8.97-5.46-17.75-7.63-26.77-6.5-23.65-16.01-48.6-36.52-64.27-6.52-4.94-14.32-8.02-21.99-10.89-8.66-2.81-17.49-5.36-26.53-6.75-10.82-1.74-22.59-2.26-32.74,2.39-11.23,4.55-20.08,16.43-17.88,28.44.64,5.69,3.64,11.42,8.94,14.3,4.42,2.19,4.09,1.52,7.69,3.19,6.92,3.11,13.89,6.12,20.82,9.18,10.01,4.69,13.78,9.99,14.46,12.88.19,4.9-.84,5.97-1.65,13.21-.81,7.28-.97,10.61-1.83,15.55-2.23,12.47-2.96,21.61-8.7,30.81-4.63,8.39-10.92,13.65-19.29,21.64-7.65,6.9-18.22,16.36-23.84,20.05-11.83,8.34-26.05,15.77-36.67,19.39-7.68,3.12-14.01,8.51-21.25,12.39-10.3,5.44-23.7,4.14-35.64-4.06-.9-.73-3.04-2.47-3.29-2.97-1.61-1.76-3.56-4.65-3.82-6.38-.01-.2-.02-.43-.02-.64,1.86-8,8.68-13.42,16.81-22.6,5.92-6.74,11.38-13.9,18.1-19.94,7.2-6.7,11.08-9.13,20.18-14.75,13.04-8.1,28.14-13.88,38.57-25.31,8.43-9.61,8.39-22.4-1.82-30.89-4.09-3.71-9.48-5.57-14.02-8.67-3.94-2.32-10.44-8.93-17.45-12.76-9.13-5.28-19.13-9.3-29.4-12.01-13.7-3.19-27.22-3.33-37.93-5.92-7.9-1.65-15.77-3.42-23.76-4.64-12.62-1.37-20.4-2.26-31.29-3.94-12.08-1.71-23.99-4.59-36.15-5.72-11.82-.59-23.69.23-35.51-.49-6.4-.44-10.32-.92-18.34-2.01-10.61-1.24-15.85-1.99-26.59-3.8-9.74-1.84-19.13-5.2-28.98-6.56-15.11-1.92-30.49-2.94-45.64-.86-6.27.72-12.3,2.61-18.42,4.04-6.14,1.47-12.41,2.57-18.32,4.81-7.47,2.66-14.18,7.14-19.15,13.16-2.55,3.03-5.03,6.29-5.93,10.16-1.13,5.32.72,10.6,2.23,15.68,2.44,7.9,6.52,15.19,11.31,21.98,2.1,3.16,3.89,6.53,6.24,9.53,4.14,5.25,10.15,8.69,15.52,12.64,7.82,5.98,23.86,15.74,28.7,18.75,10.82,8.37,13.73,15.17,16.2,28.65,1.37,6.9,2.45,13.87,4.07,20.72,1.48,4.94,3.94,9.54,5.41,14.48,2.5,9.24,2.95,18.9,5.32,28.17,4.68,15.19,11.47,20.2,7.6,33.6-1.21,5.29-3.63,11.1-5.18,14.73-2.12-.87-4.71-2.22-7.32-4.25-6.27-4.57-17.03-13.78-24.46-22.15-2.7-3.56-4.64-7.61-6.62-11.57-3.79-7.48-6.21-16.27-9.94-26.31-2.18-5.89-4.65-11.67-6.96-17.52-1.71-4.61-2.97-9.37-4.99-13.87-2.93-7.04-7.71-13.13-12.26-19.25-9.11-13.28-21.17-13.22-33.17-3.22-6.1,5.4-12.01,8.12-19.15,14.98-3.92,3.96-7.35,8.33-11.15,12.39-3.29,3.4-7.03,6.48-9.31,10.65-2.56,4.68-5.06,9.48-6.4,14.63-1.13,6.55-1.18,13.22-2.06,19.8-4.18,21.63-2.53,23.34,7.04,47.1,2.29,6.6,4.16,13.35,5.28,20.22.95,6.97.72,14.1,2.7,20.91,3.52,9.2,6.51,14.14,9.7,24.68,1.71,4.2,2.14,8.41,2.32,10.09.4,3.03.57,6.08.4,9.14-.05,1.08-.08,1.62-.12,2.02-.63-.35-1.24-.74-1.82-1.16-3.83-3-4.08-4.57-8.27-9.19-4.26-4.82-9.19-9.06-13.49-13.84-4.55-5.12-11.72-18.37-16.43-27.85-2.92-5.57-3.69-7.83-6.13-15.04-1.67-4.8-3.72-9.53-4.6-14.55-.05-1.11-.19-3.7-.13-4.3.37-4.97.66-9.95,1.24-14.9,2.14-11.76,5.53-23.3,9.7-34.54,1.67-5.09,2.71-10.36,4.05-15.54,1.27-4.28,2.76-8.5,4.18-12.73,2.43-7.27,3.81-14.85,6.43-22.06,2.17-6.03,8.71-16.89,12.38-26.04,2.55-6.69,5.07-13.53,6.06-20.63,1.33-11.84-.48-23.81-3.23-35.35-3.19-10.71-3.5-22.05-6.97-32.68-1.74-5.03-4.5-9.63-7.38-14.12-3.75-5.89-7.99-11.55-13.01-16.5-5.44-5.44-12.65-8.7-19.36-12.43-14.89-8.11-27.25-3.72-40.19-3.06-8.88.53-17.79.03-26.68.47-9.98.85-19.96,1.7-29.99,1.48-9.7-.05-19.41,0-29.03,1.33-5.28.53-10.64.63-15.79,2-2.34.61-4.61,1.43-6.87,2.25-1.12.42-2.27.77-3.36,1.25-1.79.74-3.58,1.48-5.37,2.23-4.83,1.92-9.7,3.8-14.3,6.19-4.62,2.53-8.55,6.06-12.5,9.45-2.8,2.59-5.88,4.9-8.45,7.7-5.97,7.08-12.27,13.87-18.63,20.62-6.14,6.39-11.63,13.36-15.29,21.37-6.76,12.6-9.55,27.05-9.37,41.17.04,7.47,2.39,14.66,3.32,22.03.68,4.52,1.81,8.99,3.76,13.17,2.91,7.13,5.8,10.26,7.02,16.41.03,2.49.26.98-.49,3.58-1.13,2.94-.38,1.3-1.87,4.34-1.62,3.64-2.89,4.87-4.82,6.94-.53.51-1.09.98-1.67,1.43-.48.35-1,.64-1.53.9-.27.07-.54.14-.82.21-.27.01-.59.02-.91.02-.54-.1-1.07-.23-1.58-.41-.59-.17-1.17-.39-1.73-.65.32.13.65.26.97.4-.67-.27-1.31-.59-1.92-.96-.74-.39-1.42-.86-2.06-1.4.28.21.55.41.83.62-1.54-1.18-2.78-2.66-4.03-4.12-.56-.63-1.11-1.28-1.66-1.92-.12-.15-.24-.31-.36-.46-.71-.94-1.4-1.9-1.97-2.92-.19-.3-.36-.62-.52-.94-2.64-8.11-2.54-11.39-3.31-19.59-.98-10.53-4.07-20.75-5.6-31.2-.76-5.63-1.43-6.56-1.19-12.92.06-.34.14-.67.23-1,.28-1.31.83-2.54,1.29-3.79,1.22-3.32,2.32-6.69,3.34-10.08,3.15-11.36,5.59-22.91,8.97-34.21,1.89-5.28,2.15-5.75,4.47-10.71,1.97-4.83,4.29-9.77,8.57-15.69,4.23-7.32,15.62-20.12,14.6-28.53-.18-1.86-1.44-3.49-2.99-4.55-2.23-1.22-4.88-.9-7.33-.68-6.09.55-11.9,2.62-17.77,4.17-.81.24-1.64.39-2.47.5-3.28.27-6.58.21-9.87.2-.97-.02-1.93-.08-2.9-.17l-.78-.11c-.99-.18-1.95-.46-2.89-.77-.56-.17-1.11-.37-1.65-.61.2.08.41.17.61.25-.78-.39-1.5-.86-2.23-1.33-3.12-2.05-5.91-4.11-8.73-6.58C10.49,11.33,4.99,6.59,0,.59c9.63,25.06,43.2,38.54,68.44,27.48-33.64,47.95-52.77,109.79-32.66,164.33,3.86,10.47,11.68,22.06,23.2,21.51,10.88-.53,17.83-12.35,17.55-22.85-.28-10.5-5.44-20.2-8.69-30.23-5.47-16.89-5.49-35.39-.04-52.29,10.38-32.17,39.62-56.32,72.15-68.69,32.53-12.36,68.23-14.43,103.2-14.23,14.14.08,28.62.57,41.78,5.57,33.89,12.86,49.35,52.35,46.87,87.36-2.48,35.01-18.49,67.57-29.95,100.88-11.46,33.31-18.21,70.91-2.7,102.66,8.91,18.24,24.29,32.66,39.35,46.66,3.95,3.67,9.19,7.63,14.33,5.8,6.81-2.42,6.18-11.8,4.27-18.54-6.6-23.31-13.19-46.62-19.79-69.93-6.73-23.78-13.42-49.35-4.87-72.59,4.57-12.42,44.64-65.31,59.9-49.71,3.27,3.35,6.95,8.76,10.92,14.66,4.9,7.58,5.67,12.96,9.24,22.28,3.22,7.86,6.24,15.79,8.97,23.82,2.27,6.24,4.21,12.59,7.12,18.6,2.04,4.15,3.58,8.04,7.61,13.54,7.33,8.57,15.8,16.28,24.86,23.14,3.38,2.68,6.98,5.06,11.13,6.5,2.31.88,5.08,2.29,7.47.94,1.79-.96,2.17-3,2.89-4.69.85-1.9,1.68-3.8,2.45-5.73,3.96-10.12,7.26-21.71,2.75-32.18-2.88-7.35-4.68-9.59-6.6-16-2.38-8.93-3.06-18.21-5.08-27.21-1.33-5.3-3.96-10.18-5.65-15.37-2.58-9.56-3.58-19.47-5.92-29.09-2.3-8.04-6.37-15.72-12.73-21.47-3.84-3.7-8.5-6.45-13.07-9.24-5.37-3.28-10.66-6.69-15.84-10.25-7.83-6.07-13.65-8.64-19-14.96-1.96-3.18-6.1-9.55-9.93-15.51-3.18-5.55-3.63-6.45-5.57-11.96-2.19-6.68-3.34-11.23-2.09-13.68,2.77-6.08,10.95-13.65,18.5-16.32,5.56-2.26,11.54-3.29,17.38-4.68,11.61-2.95,18.82-4.88,29.46-5.13,12.64-.41,25.52.62,35.18,2.25,6.95,1.35,13.68,3.56,20.59,5.06,7.18,1.76,23.55,4.13,26.74,4.38,8.71,1.04,17.35,2.61,26.12,3.04,11.37.6,22.79-.03,34.17.58,13.02,1.46,33.98,6.23,50.8,8.02,4.85.62,9.71,1.16,14.56,1.72,9.83,1.58,19.49,3.97,29.25,5.9,10.65,1.89,19.42,2.2,27.5,3.89,5.62,1.08,11.09,2.74,16.35,4.92,5.03,1.75,12.75,5.39,19.7,10.15,3.45,2.03,6.72,5.91,12.41,9.63,3.72,2.73,8.13,4.42,11.89,7.06.45.38,1.59,1.33,1.99,1.78.4.34,1.11,1.16,1.53,1.65.41.53.78,1.09,1.11,1.67.59.75,1.71,3.6.71,1.31,1.71,5.61-.1,9.33-4.31,13.99-7.77,8.02-20.9,13.83-33.1,21.01-5.52,3.46-11.15,6.8-16.34,10.72-7.05,5.44-13.48,11.62-19.09,18.45-2.95,3.34-5.89,6.68-8.79,10.06-2.7,2.83-5.57,5.52-8.12,8.48-10.11,11.47-14.34,20.87-2.34,32.86,10.72,9.83,26.98,14.33,41.39,10.77,8.64-2.34,15.51-8.15,23.07-12.54,7.17-4.17,12.88-5.22,21.92-9.88,13.34-6.81,25.73-15.31,36.83-25.18,5.53-4.77,11.06-9.52,16.28-14.61,7.41-6.67,13.9-14.38,17.89-23.43,3.67-7.1,4.72-15.02,6.07-22.75,2.06-9.17,2.58-20.55,3.82-26.1.61-4.04,1.68-8.14.71-12.2-3.76-11.77-16.09-17.89-27.16-22.21-5.33-2.39-10.61-4.86-16.03-7.05-4.18-1.67-2.55-.77-5.08-2.26-.51-.44-1.29-1.16-1.58-1.6-1.67-2.5-3.51-9.69.02-14.95.32-.6,1.32-1.95,1.52-2.23.14-.17.28-.35.42-.52,1.14-1.35,2.4-2.61,3.78-3.73,1.45-.98,3.02-1.8,4.61-2.54.54-.26,1.1-.5,1.65-.73,1.16-.43,2.33-.84,3.53-1.13,1.1-.31,2.23-.54,3.37-.71,12.06-.97,18.68.04,29.91,2.85,6.92,1.69,17.12,4.98,20.07,6.43,10.34,4.58,15.28,7.77,22.26,15.81,10.67,11.96,18.38,30.52,23.42,49.38,2.35,10.73,6.56,21.25,8.57,31.91.36,2.92.56,5.86.6,8.8,0,6.7-.06,7.79-1.2,12.86-1.5,6.89-3.83,13.57-6.33,20.18-2.34,7.19-4.69,14.38-7.35,21.47-4.62,10.92-7.09,21.19-11.51,28.92-3.66,6.46-7.16,9.72-13.61,16.41-8.11,8.17-16.79,15.81-24.54,24.3-7.11,7.23-12.94,15.49-19.81,22.91-2.74,2.95-5.67,5.74-8.75,8.36-3.35,2.69-6.46,5.61-8.88,9.13-3.18,4.56-5.86,9.45-7.96,14.56-3.24,7-3.66,15.32,5.87,17.17,8.4,1.54,17-1.28,24.22-5.32,5.51-3.39,10.86-7.11,16.87-9.65,1.49-.56,3.02-1.05,4.58-1.41,4.47-1.1,9.06-1.68,13.56-2.61,14.12-3.63,25.15-13.78,34.6-24.08,3.15-3.19,6.72-5.96,9.89-9.12,3.16-3.44,5.98-7.15,9.14-10.6,3.65-4.05,7.12-8.26,11.09-12.03,3.8-4.13,7.39-8.43,11.07-12.67,5.1-5.99,10.58-11.81,14.39-18.69,5.67-9.64,8.71-20.41,11.77-31.02.81-3.16,1.69-6.33,2.02-9.58.47-4.57.38-9.18.69-13.76.35-5.26,1.51-10.51,1.31-15.79-.33-4.34-1.92-8.46-2.73-12.72-1.24-6.24-2.25-12.53-3.92-18.68-1.79-7.02-3.9-8.09-4.79-13.58-.29-2.19-.36-4.4-.29-6.61.26-3.47.14-2.96.37-4.32,1.38-8.13,3.78-16.06,5.62-24.09,1.09-6.25,2.21-12.5,3.35-18.74.63-4.79,1.72-10.08,3-11.36.17-.25.36-.49.55-.73.74-.88,1.51-1.74,2.37-2.53.37-.36.77-.7,1.17-1.02,3.27-2.3,6.73-4.35,9.67-7.06,5.47-4.74,9.53-10.77,15.19-15.32,4.04-3.77,5.81-4.38,10.14-7.54,1.28-.85,2.19-2.09,3.16-3.25,1.27-1.39,2.73-2.6,4.19-3.8,2.28-1.76,4.08-4,6.09-6.04,1.83-1.7,3.63-3.62,3.74-6.19.03-.78-.19-1.58-.16-2.35Z"/><path class="cls-2" d="m328.03,244.31c-.04.27-.08.53-.12.8.14-.85.15-1,.12-.8Z"/></g><path class="cls-4" d="m1139.5,516.87c-2.21-3.82-3.39-6.56-4.7-10.43-2.02-5.15-2.38-10.73-4.18-15.93-2.73-7.66-5.97-15.11-9.36-22.5-.21-.5-.51-1.23-.7-1.69-1.23-2.96-2.44-5.99-4.49-8.5-1.55-2.2-3.57-3.99-5.27-6.06-2.54-3.27-4.67-6.84-7.35-10-2.33-2.88-5.2-5.23-7.68-7.97-2.68-3.14-5.26-6.43-8.52-9.01-4.78-4.05-10.16-7.23-15.25-10.83-3.7-3.03-6.55-6.95-10.15-10.09-3.91-3.53-8.73-5.74-12.92-8.86-6.37-5.48-12.67-11.07-19.1-16.48-2.58-2.02-5.15-4.11-7.23-6.65-3.25-4.53-5.85-9.5-8.76-14.25-6.87-11.16-7.88-16.65-6.94-24.5.87-6.53,3.32-12.67,5.35-18.89,2.89-9.05,5.91-18.07,8.53-27.2,1.21-4.19,2.65-8.33,3.69-12.57,1.6-7.14,3.1-14.32,5.5-21.25,3.43-8.72,4.67-11.12,8.2-19.65,1.91-4.69,3.7-9.43,4.54-14.44,1.24-7.21.87-14.65-.03-21.89-.78-4.01-2.04-7.93-2.62-11.99-.68-3.25-.14-3.52-1.8-9-3.4-8.42-8.39-16.08-13.12-23.8-3.26-5.07-4.15-10.01-5.13-17.47-1.05-8.23-.98-16.54.69-24.68-1.02,2.91-2.25,5.77-3.1,8.73-.92,4.08-1.51,8.23-1.83,12.41-.5,8.13-.57,16.77,3.24,24.19,3.08,6.16,9.2,19.04,10.2,21.67,1.52,4.82,1.08,3.77,1.59,7.5.08.65.27,2.01.34,2.46.51,4.05,1.62,7.98,2.39,11.98.64,6.86.52,14.84-.31,18-3.09,13.44-9.03,21.51-14.12,35.84-2.22,6.46-3.56,13.14-5.13,19.77-3.82,12.77-7.84,25.48-12.06,38.12-4.52,12.53-9.23,26.62-4.01,39.66,2.02,5.38,4.99,10.32,7.9,15.25,2.91,4.71,5.44,9.69,9,13.96,2.23,2.71,5.04,4.84,7.76,7.02,2.55,2.21,5.08,4.45,7.69,6.59,4.92,4.02,9.33,8.64,14.58,12.24,2.71,1.87,5.66,3.36,8.31,5.31,3.57,2.85,6.32,6.56,9.72,9.61,3.72,3.39,8.14,5.88,12.32,8.64,4.97,3.62,7.35,5.47,12.66,11.97,2.53,2.86,5.55,5.24,7.96,8.21.19.23.37.46.56.69,1.73,2.28,3.23,4.73,5.03,6.95,1.91,2.8,4.48,5.03,6.62,7.62,1.46,1.99,2.54,4.24,3.66,6.44,4.01,7.55,8.58,14.79,12.61,22.33,2.4,4.54,3.87,10.35,7.88,16.32,2.49,4.51,6.45,7.92,9.46,12.04.1.12.23.27.39.31.22-.03.23-.08.4-.23-1.54-1.18-1.8-3.45-2.91-5.02Z"/><path class="cls-4" d="m614.76,175.2c-2.99,2.19-6.58,3.24-9.77,5.06-5.73,3.13-10.82,7.25-16.09,11.08-5.56,4.77-11.69,9.61-14.85,16.39-2.02,4.07-2.68,8.6-4.42,12.77-1.91,5.24-3.86,8.42-6.02,15.56-1.67,6.6-1.73,13.47-.85,20.2.48,4.98,1.14,9.94,2.55,14.75,1.77,5.49,4.2,10.74,5.61,16.34.04.19.07.38.1.57.24,3.68.08,7.39.14,11.08-.04,5.81.13,11.64-.29,17.45.05,2.15-1.8,8.98-3.37,14.3-.92,3.87-1.46,7.82-2.29,11.71-1.3,7.1-3.64,13.9-6.34,20.57-2.43,6.66-2.81,8.47-6.57,14.98-3.14,6.09-6.22,12.42-7.03,19.31-.78,7.41.07,14.99,1.37,22.3,2.02,7.97,5.92,15.36,7.69,23.41-.49-7.57-2.81-14.85-3.97-22.31-.55-4.59-.1-9.21.12-13.8.3-7.4,1.81-12.25,5.35-18.77,2.98-5.47,6.68-10.54,8.89-16.4,2.9-7.96,6.51-15.69,8.25-24.02,1.19-4.93,1.87-9.97,3.07-14.9,1.39-4.9,3.05-9.74,3.53-14.84.67-5.77.46-11.6.56-17.39-.15-5.29.52-10.68-.54-15.9-1.3-5.17-3.46-10.05-5.15-15.1-2.01-6.65-1.93-7.9-2.61-13.59-.91-8.51-.83-13.08.93-19.44,1.5-4.67,3.63-9.12,5.18-13.77,1.04-2.65,1.44-5.48,2.09-8.25.31-1.42.76-2.81,1.32-4.15,0-.02.02-.04.02-.06,2.24-4.61,2.87-4.67,5.98-8.41,3.28-3.87,6.94-7.38,10.72-10.76,4.76-4.65,8.62-7.93,13.81-11.14,2.33-1.46,4.22-3.48,6.24-5.32,1.94-1.85,3.97-3.69,5.28-6.06-2.37,2.79-5.7,4.47-8.66,6.55Z"/><path class="cls-4" d="m436.69,450.39c-2.45-8.12-7.13-15.36-12.17-22.1-3.79-4.82-7.43-9.81-12.15-13.79-8.11-6.89-17.45-12.59-27.65-15.74,9.94,5.06,18.74,12.39,26.02,20.82,6.77,8.51,14,21.06,16.72,28.22,1.8,5.42,2.05,5.95,2.18,10.45.14,4.75.09,9.5-.21,14.24-.72,6.6-.43,7.15-1.83,13.03-1.26,4.7-4.78,14.48-5.06,15.03-4.93,10.44-10.02,14.23-18.08,23.42-5.14,7.09-7.37,9.71-14.16,17.08-5.24,6.38-10.18,13-16.22,18.66-6.4,5.3-12.7,10.89-17.35,17.84-2.31,4.03-4.21,8.27-6.24,12.44-2.14,4.41-3.87,9-5.67,13.55-1.84,4.13-3.66,8.29-4.32,12.8-1.06,4.76-2.1,9.55-2.23,14.45.02,4.73.82,9.41,1.36,14.1.99-6.59.92-11.29,3.16-17.59,1.09-3.49,4.58-11.32,5.06-12.81,2.99-5.24,6.14-10.38,8.9-15.74,3.44-5.68,6.35-11.71,10.06-17.21.04-.05.07-.09.11-.14,2.3-2.67,4.62-5.31,7.13-7.78,2.17-2.07,4.59-3.87,6.83-5.86,2.35-2.19,4.49-4.62,6.75-6.91,4.49-5.18,8.39-10.86,13.07-15.88,4.29-4.47,7.85-9.53,11.45-14.55,4.89-5.69,10.06-10.62,14.18-17.06,4.35-5.86,6.17-12.97,8.25-19.84,2.48-7.05,3.03-14.56,3.39-21.97.06-7.04.36-14.27-1.33-21.16Z"/><path class="cls-4" d="m171.53,591.45c-.73-4.36-2.52-10.21-2.54-12.23-.28-3.01-.59-6.03-.69-9.05.23-3.96.2-7.93-.15-11.88-.08-2.29-.82-4.46-1.49-6.62-.62-2.5-1.43-4.94-2.39-7.32-.28-.81-.73-1.54-1.11-2.31.59,1.72.85,3.51,1.19,5.29.27,3.37,1.27,7.67.85,11.39-.27,5.78-1.9,10.71-1.97,17.27-.34,4.76.26,9.47,1.01,14.17.44,4.86.25,7.76-.4,10.46-1.75,7.92-5.98,8.49-11.79,19.12-4.1,6.26-7.95,12.71-12.48,18.68-6.92,8.38-15.2,15.53-23.64,22.34-2.54,2.45-10.08,6.08-15.63,9.53-8.34,4.91-11.96,6.71-19.94,6.87-6.42.39-7.94,1.1-13.77,1.49-6.84.4-13.75-.1-20.51,1.19-4.44.81-8.63,2.64-12.65,4.64-7.32,3.11-13.52,9.95-13.52,18.22.06,5.77,2.64,11.1,5.2,16.14,2.53,5.03,5.48,9.82,8.84,14.33-3.44-6.78-6.22-13.9-8.38-21.19-4.08-12.35,2.69-18.69,8.95-21.25,4.4-1.87,8.92-3.63,13.68-4.28,4.92-.63,9.89-.43,14.84-.54,4.25-.06,8.47-.5,12.67-1.1,4.61-.34,9.27-.24,13.83-1.15,7.17-1.64,13.36-5.92,19.72-9.45,4.5-2.44,9.14-4.69,12.94-8.2,6.36-5.01,12.4-10.39,18.04-16.21,8.18-8.21,13.84-18.47,20.14-28.11,2.77-5.5,7.34-7.98,10.11-15.5,1.56-4.72,1.83-9.83,1.05-14.72Z"/><path class="cls-4" d="m120.41,373.34c-1.86,4.11-3.64,8.87-7.53,12.19-3.07,2.65-5.29,4.36-9.78,6.53-3.97,1.89-3.78,1.7-7.75,3.41.29-.12.59-.25.88-.37-4.94,2.18-9.51,4.11-16.82,5.47-5.07.9-5.83,1.23-11.49-.45-.88,0-7.39-4.08-8.04-4.96-3.31-2.68-6.08-5.94-8.77-9.22-.03-.03-.05-.07-.08-.1-.17-.23-.25-.34-.27-.36,0,0,0-.01-.01-.02-3.85-5.63-6.75-11.86-9.71-17.98-5.62-12.49-9.3-19.45-12.54-32.92-.89-3.64-.92-11.93-.17-19.03,1.02-7.13,3.29-13.98,5.3-20.87,2.74-9.8,3.47-16.94,8.42-23.89.69-1.43,6.77-6.98,10.39-10.18,7.76-7.01,12.86-10.47,20.65-16.9,10.2-8.71,20.01-17.98,31.35-25.23-13.06,5.52-24.57,13.94-36.2,21.93-7.42,4.69-14.76,9.53-21.52,15.15-4.27,3.62-8.86,7-12.01,11.73-5.03,7.15-6.82,15.9-9.06,24.2-2.02,6.75-4.42,13.4-5.64,20.36-1.26,7.57-1.68,15.4-.65,23.02,1.86,11.4,6.85,21.97,11.43,32.49,5.22,11.43,10.45,23.22,19.71,32.02,6.77,6.5,15.6,12.3,25.4,11.11,7.83-1.02,15.3-3.98,22.08-7.98,4.03-2.27,8.08-4.55,11.71-7.44,3.09-2.6,5.93-5.62,8.12-9.02,1.57-2.65,2.49-5.61,3.19-8.59.44-2.14.78-4.35,1.79-6.31.63-1.14,1.57-2.1,2.29-3.2-1.83,1.57-3.7,3.13-4.66,5.41Z"/><path class="cls-4" d="m1357.89,418.14c-1.03-12.22-6.23-23.56-12.67-33.85-3.51-5.97-7.54-11.61-11.09-17.54-2.9-5.36-4.01-8.16-5.42-11.73-1.96-5.03-3.53-10.21-5.33-15.3-1.16-3.46-2.53-6.87-3.22-10.47-.87-3.48-.71-8.63-.6-15.14.53-7.79-.23-19.46.78-24.03,1.06-6.59,3.05-13.01,5.14-19.34,1.35-3.93,2.85-7.83,4.63-11.58,1.37-2.43,3.02-4.71,4.47-7.09-1.9,2.01-3.93,3.91-5.74,6-2.84,3.81-5.28,7.9-7.5,12.1-3.2,6.27-6.21,12.72-7.96,19.56-1.51,5.5-1.52,11.23-2.04,16.88-.54,6.51-1.25,13.05-.75,19.58.49,6.73,2.96,13.01,5.1,19.33,2.76,8.65,5.77,17.26,10.03,25.3,2.78,5.1,6.33,9.73,9.23,14.76,3.51,5.19,9.24,16.22,9.84,18.15,2.38,6.23,3.53,12.55,3.68,15.91.73,11.14-.86,27.69-1.87,34.55-1.48,9.1-4.91,17.72-7.21,26.62-1.68,6.19-3.12,12.44-4.84,18.62-1.24,4.46-2.62,8.91-3.14,13.53-.5,5.27-1.18,10.56-1.03,15.86.23,6.14,1.37,12.2,1.76,18.33.68,7.49.23,15.04.65,22.54,1.08,10.75,2.88,21.42,4.74,32.05,1.34,6.04.95,11.93,2.77,19.83,1.79,7,5.55,13.27,8.23,19.93.3.66.59,1.33.89,1.99.2.41.42.8.65,1.19.1.15.37.66.23.29-1.11-3.38-1.55-6.94-2.48-10.38-.86-3.56-1.94-7.07-2.53-10.7-1.33-7.66.39-15.43-.51-23.14-.48-6.06-1-12.11-1.65-18.16-.72-6.57-1.69-13.12-1.68-19.75-.04-4.45-.02-8.91-.29-13.35-.42-6.44-1.46-12.82-1.96-19.25-.25-3.94.02-7.87.46-11.78.41-5.7.92-8.17,2.98-15.16,2.2-7.55,3.89-15.24,6.13-22.78,1.82-6.6,4.27-13.02,5.87-19.68,1.63-7.34,2.3-14.86,2.87-22.35.71-6.76.8-13.59.34-20.37Z"/><path class="cls-4" d="m1270.12,567.65c-1.23-7.73-2.94-15.37-5.92-22.63-2.43-6.41-5.32-12.64-9.54-18.09-8.04-11.19-17.52-21.28-25.93-32.18-5.74-7.11-13.63-18.28-21.42-30.77-2.18-3.42-4.16-6.97-6.61-10.2-1.5-2.04-3.24-3.87-4.87-5.8-.1-.13-.2-.26-.3-.4-4.02-6.26-6.96-13.13-10.43-19.69-2.83-5.68-6.99-10.49-10.94-15.41-3.25-4.12-5.99-8.6-8.34-13.29-2.75-5.44-5.17-11.04-7.88-16.5-1.15-2.33-2.74-4.42-3.88-6.76-.09-.27-.22-.63-.28-.86-.6-2.23-1.07-4.83-1.1-5.98-.11-4.05,0-8.1-.52-12.13-.33-3.61.06-7.24.2-10.84-1.53,4.95-2.67,9.99-3.11,15.16-.19,2.37-1.45,6.25-1.48,9.41-.1,2.66-.04,5.39.63,7.98,1.54,4.22,1.57,3.62,2.8,7.1,2.94,8.97,5.77,18.1,10.48,26.32,4.03,6.75,9.38,11.95,11.74,15.77,5.41,8.46,8.65,18.22,14.67,26.3,4.84,5.46,5.85,6.85,10.07,13.72,3.76,5.98,7.89,11.7,11.97,17.46,8.32,11.83,17.93,22.67,27.25,33.71,6.31,7.88,9.39,11.04,14.4,19.28,3.02,5.87,3.21,6.71,5.43,12.66,2.38,6.08,3.5,12.53,4.65,18.93,1.06,5.98,1.27,6.67,1.66,11.57.4,5.61.52,5.78-.82,10.42-1.92,5.37-3.76,8.86-6.62,15.95-3.62,10.07-6.66,20.35-10.65,30.29-1.98,5.72-8.25,14-13.4,19.42-3.89,4.02-8.44,7.3-12.46,11.17-3.52,3.05-6.42,6.71-9.4,10.26-2.91,3.33-6.12,6.41-8.61,10.08-3.24,4.88-5.92,10.12-8.46,15.4-5.58,10.67-10.07,26.06,1.37,34.54,4.62,3.87,9.66,7.29,15.53,8.88-4.29-2.12-8.04-5.1-11.27-8.62-2.86-3-6.19-6.32-6.5-10.68-.36-7.7,2.01-12.53,5.92-19.43,3.27-5.72,6.55-11.48,10.4-16.84,2.14-2.68,4.58-5.12,6.87-7.67,3.14-3.7,6.19-7.49,9.89-10.65,3.8-3.6,8.07-6.68,11.78-10.38,4.51-4.72,8.55-9.93,12.23-15.32,5.87-11.04,9.11-23.26,13.33-34.98,2.06-6.05,6.4-13.37,8.89-22.02,1.68-7.82-.15-15.89-1.43-23.65Z"/><path class="cls-4" d="m842.13,761.87c-.25.71-.58,1.37-.95,2.03-1.48-5.56-2.85-11.32-6.38-15.98-3.43-4.88-7.81-8.96-11.71-13.43-2.33-2.78-5.5-4.66-8.03-7.25-2.26-2.29-.95-1.25-3.82-4.52-2.29-2.38-5.22-3.88-8.21-5.19-2.48-1.17-4.7-2.81-7.11-4.11-2.45-1.32-5.09-2.22-7.7-3.16-3.84-1.26-7.75-2.28-11.58-3.58-3.63-1.42-1.78-.25-4.68-2.2-.34-.31-.66-.64-.97-.98-2.95-3.38-2.63-2.77-5.95-7.57-5.01-8.16-9.93-16.41-15.67-24.08-4.13-6.46-5.79-9.14-6.86-14.54-.33-4.54-.07-9.11-.18-13.66-.06-5.04.08-10.11-.72-15.1-.95-4.93-2.79-9.66-3.56-14.63-1.92-9.86-6.49-14.6-14.97-19.55-5.05-2.63-4.58-3.63-10.41-6.83-2.83-1.53-5.54-3.3-8.66-4.22-3.4-.97-6.95-1.31-10.37-2.2-4.54-1.31-6.64-2.57-12.49-6.03-2.21-1.54-4.66-2.71-6.87-4.24-2.88-2.6-3.37-5.78-7.43-9.93-4.05-3.77-8.79-6.69-13.28-9.9-7.44-5.17-14.89-10.43-22.98-14.56,6.2,4.81,11.84,10.29,17.6,15.6,4.04,3.92,8.47,7.43,12.35,11.52,3.79,3.63,3.22,6.8,7.62,12.55,1.84,2.33,4.59,3.69,6.87,5.54,4.63,3.54,9.71,6.63,15.25,8.51,6.92,2.11,11.44,1.88,15.2,4.73,5.49,2.92,4.89,2.91,9.65,6.39,4.89,2.98,7.59,4.49,9.55,6.71,2.07,1.74,3.09,6.2,4.59,13.75.73,3.02,1.75,5.98,2.31,9.04.39,3.67.33,7.37.35,11.05.19,6.52-.65,13.15.71,19.58,1.36,4.83,3.64,9.4,6.28,13.65,2.26,3.45,4.91,6.64,7,10.21,4.25,6.26,7.69,13.06,12.08,19.22,2.76,3.63,5.42,7.53,9.36,9.97,6.6,3.54,14.17,4.7,21.09,7.48,2.32,1.05,4.48,2.43,6.69,3.68,5.11,2.62,5.57,1.98,8.86,4.26,0,0,.02.02.03.02,3.52,4.04,7.9,6.91,12.43,9.7,1.96,1.81,8.39,6.49,11.51,9.07,2.24,1.8,4.39,3.75,6.18,6,2.07,2.83,3.66,5.97,5.42,8.99.42.66.62,1.56,1.48,1.73.18.05.38,0,.51-.14.4-.78.54-1.71.68-2.57.07-.54.12-1.09.19-1.63-.1.26-.2.52-.3.77Z"/><path class="cls-4" d="m626.91,651.17c-2.91-3.34-6.71-5.76-10.48-8.03-2.95-1.83-5.89-3.83-9.29-4.74-7.64-1.4-15.64-1.57-23.25.09-4.42,1.15-8.2,3.82-12.08,6.11-4.74,2.33-4.32,2.27-9.84,2.62-11.92.67-19.69-1.74-29.36-6.16-8.92-3.6-12.13-4.3-19.56-8.25-2.3-1.15-4.42-2.6-6.67-3.83-2.45-1.24-5.09-2.16-7.36-3.73-4.01-2.88-7.86-6-11.93-8.8-4.2-2.7-8.41-5.41-12.54-8.21-1.75-1.38-2-1.23-5.1-4.52-1.18-1.69-2.23-3.45-3.34-5.18-3.55-5.87-4.26-7.65-6.38-13.18-1.43-4.47-1.36-4.92-1.81-9.37-.28-3.47-.82-6.92-.92-10.4.13-4.93,1.94-9.77,4.69-13.68-.35.18-.62.45-.87.74-2.93,3.13-5.36,6.84-6.67,10.94-.94,3.3-1.01,6.76-1.4,10.15-.28,3.12-.71,6.25-.55,9.39.3,4.45,1.44,8.81,2.76,13.06,1.75,4.89,3.9,9.75,6.65,14.16,5.15,6.8,12.95,10.79,19.91,15.45,5.18,3.33,9.63,7.81,15.15,10.58,4.89,1.88,9.86,5.29,17.34,8.39.22.09.53.23.86.36-2.06-.85,3.73,1.58,4.9,1.91,4.35,1.6,8.73,3.11,13,4.9,3.84,1.6,7.75,3.12,11.9,3.68,5.08.95,10.23,1.34,15.39.98,4.48-.19,9.04-.62,13.12-2.66,5.19-2.49,10.6-7.06,13.37-7.38,4.91-1.09,5-1.08,10.74-1.07,4.86.13,6.2-.14,9.26.94,3.9,2.01,7.64,4.4,11.27,6.86.04.03.08.06.11.09,3.41,2.9,3.43,2.78,5.44,6.52,1.18,3.34.79,2.38.8,6.29-.09,5.9-1.24,8.31-3.79,13.65-1.83,3.37-1.84,4.71-2.76,6.17-2.58,4.48-5.17,8.96-7.83,13.39-4.66,7.57-7.58,11.78-12.56,17.37-3.34,4.26-6.97,8.27-10.96,11.93-8.86,8.17-18.81,15.17-26.94,24.14,9.29-7.19,19.79-12.56,29.39-19.27,4.74-3.43,9.24-7.18,13.2-11.49,2.26-2.29,4.68-4.44,6.63-7.02,1.14-1.58,4-4.68,6.34-8.51,2.94-4.53,5.44-9.33,8.3-13.9,3.13-5.64,3.24-7.01,5.65-12.02,2.33-4.88,3.33-10.22,3.21-15.62.26-5.09-1.88-9.96-5.1-13.81Z"/><path class="cls-4" d="m379.7,652.42c-.56,3.98-3.04,7.15-5.81,9.9-2.43,2.81-5.05,5.46-7.58,8.18-4.57,4.9-9.79,9.13-14.48,13.9-6.14,6.84-13.3,15.59-18.05,18.26-5.41,2.92-5.15,2.38-11.09,4.83-4.65,2-9.47,3.5-14.35,4.79-4.42,1.1-6.24,1.24-12.43.76-10.02-1.68-14.01-3.87-22.7-9.12-7.94-4.75-10.65-7.26-15.44-15.22-3.73-5.77-3.68-6.97-6.02-13.94-1.63-5.51-1.52-5.08-1.44-10.96.06-3.75,1.47-6.72,5.92-12.91,2.89-4.32,6.61-11.06,7.79-12.21,3.76-4.09,6.78-8.73,9.45-13.59,2.84-4.74,5.37-9.68,7.03-14.96,3.23-11.14,4.14-23.42-.32-34.35-1.54-4.05-3.28-8.39-6.98-10.92-3.56-2.34-7.73-3.41-11.65-4.96-4.64-2.11-9.55-3.49-14.58-4.33-4.03-.77-8.11-1.43-12.22-1.09,4.41.4,8.58,1.93,12.73,3.41,4.84,1.56,9.31,3.94,13.65,6.57,5.01,2.6,8.76,4.4,9.77,6.68,1.66,2.99,3.64,11.94,3.73,14.97.21,8.62-.16,9.66-1.28,15.65-1.79,7.55-2.56,9.44-5.81,15.36-4.32,7.56-6.28,11-10.99,16.24-3.68,4.78-6.26,10.31-9.92,15.12-6.31,8.17-7.14,19.34-3.88,28.94,1.59,4.84,2.89,9.83,5.69,14.15,2.66,4.48,5.38,9.01,9.16,12.66,5.81,5.49,12.86,9.48,19.89,13.19,15.02,7.16,27.54,6.92,43.08,1.65,6.25-2.48,12.82-4.31,18.74-7.56,9.22-5.82,16.07-18.34,20.63-23.99,5.82-6.9,11.16-14.24,15.52-22.16,1.46-2.66,3.23-5.21,3.97-8.2.43-1.67.37-3.4.39-5.11-.04.12-.09.24-.11.36Z"/><path class="cls-4" d="m246.95,252.87c-.38-3.63-1.65-7.14-2.62-10.69-.77-2.84-1.46-5.71-2.84-8.41-4.72-8.91-12.31-17.51-23.38-21.53-4.08-1.56-8.54-2.25-13.01-2.38-7.14-.5-14.53.63-20.59,3.87-4.56,2.37-8.54,5.41-12.76,8.16-5.2,3.14-9.84,6.82-14.67,10.32-6.05,4.7-6.68,11.93-8.17,18.28-.99,4.67-1.87,9.38-1.59,14.13.51,6.22,1.12,7.44,1.6,13.54.24,5.77,1.74,11.4,3.91,16.88,1.07,2.85,2.45,5.61,3.37,8.5.87,2.64,1.07,4.86,1.48,7.58.03.12.05.18.06.22-.03-.04,0,.05.03.14.17-1.97.57-3.84.66-5.72.26-2.58-.64-7.76-.85-8.83-.62-4.2-1.26-8.41-1.33-12.65.16-4.37.7-8.73.65-13.11-.48-8.57.2-11.87,1.82-19.35,1.23-5.47,1.82-10.19,4.08-12.75.04-.06.1-.11.14-.16,2.83-2.51,6.18-4.59,9.18-6.97,2.45-2.05,6.37-4.07,11.15-7.51,8.21-5.73,13.01-7.71,25.9-6.66,10.42,1.25,18.66,9.03,23.9,17.91,1.56,2.95,2.26,6.12,3.2,9.22.72,2.52,1.61,5.02,2.12,7.57.67,4.82.01,9.67-.26,14.49-.4,6.98-.09,11.37-1.67,16.56-2.27,5.8-5.1,11.45-7.13,17.31-1.57,3.79-1.79,7.89-3.59,11.61-.33.52-1.2,1.91-1.53,2.25-1.28,1.81-2.45,3.67-3.56,5.55-1.63,2.9-2.93,5.92-4.11,8.96-1.26,3.42-2.44,6.93-2.25,10.54,1.24-6.07,5.3-11.45,8.9-16.75,2.48-3.57,5.86-6.26,8.14-9.86,1.84-3.2,2.63-6.72,4.3-9.97,2.48-5.57,5.52-10.42,8.69-17.73,1.93-6.2,1.83-12.63,2.23-18.98.34-4.52.95-9.06.45-13.59Z"/><path class="cls-4" d="m830.15,111.04c-.3-6.97-2.32-13.71-5.73-19.78-2.07-3.76-4.03-7.64-6.98-10.8-4.96-5.26-5.66-6.43-9.55-11.53-1.49-2.04-3.27-3.82-4.95-5.7-1.33-1.59-2.51-3.3-3.96-4.79-3.4-3.55-7.95-5.61-12.48-7.3-2.51-.91-5.14-1.49-7.63-2.46-3.93-1.9-7.49-5-11.12-7.47-3.33-2.71-6.88-5.52-11.62-5.8-6.59-.43-13.44-.11-19.72,2.07,3.24-.5,6.51-.47,9.77-.11,3.72.42,7.52.76,11.06,2.05,2.97,1.1,4.87,3.71,7.04,5.91,3.14,2.98,6.16,6.12,9.58,8.77,6.75,4.21,10.07,3.86,15.88,8,2.7,1.94,3.06,2.76,6.31,6.93,1.39,1.76,3.01,3.31,4.41,5.06,2.05,2.74,4.07,5.5,6.26,8.14,1.61,2.03,3.49,3.82,5.12,5.82,3.73,5.81,6.78,11.55,7.86,15.36,1.4,5.84,1.53,8.7,1.32,16.33-1.17,6.2-2.99,12.1-4.59,15.02-2.49,4.83-7.5,12.01-8.7,13.29-3.67,4.85-5.8,7.46-11.54,12.22-1.02.74-2.06,1.46-3.08,2.21-2.83,2.11-5.81,4.01-8.82,5.85-5.61,2.78-10.56,6.59-15.59,10.28-2.55,1.87-6.19,4.59-7.65,6.52,5.76-3.71,12.33-5.89,18.4-9.02.57-.24,1.13-.47,1.7-.71,9.99-3.38,19.72-8.08,27.57-15.23,5.75-5.76,11-12.15,14.87-19.34,2.89-4.97,4.46-10.54,5.82-16.09,1.17-4.47.97-9.12.76-13.69Z"/><path class="cls-4" d="m469.29,239.89c-2.27-2.8-2.82-6.58-3.81-9.96-.87-5.32.64-10.78-.57-16.09-.99-5.86-4.31-10.88-6.9-16.11,0-.02-.02-.04-.03-.06-.03-.08-.08-.2-.16-.4-.87-2.35-1.52-4.78-2.28-7.17-4.23-13.11-2-21.96-13.89-31.53-2.94-2.6-5.89-5.22-8.34-8.3-2.37-3.37-3.93-7.24-5.68-10.95-3.25-5.94-8.89-10.14-14.13-14.23-4.64-3.49-9.65-6.39-14.66-9.3-1.93-1.32-3.9-3.03-5.66-6.06-2.01-3.35-2.97-8.08-5.68-13.67-2.12-5.19-8.46-11.41-10.03-13.66-4.56-6.85-7.9-14.46-11.82-21.69-4-8.24-8.19-16.51-10.42-25.44.81,9.37,3.88,18.36,6.99,27.19,1.32,3.63,5.24,13.3,5.75,14.34.37.85,2.43,6.36,4.26,9.12,2.88,4.48,6.68,8.43,8.67,13.44,2.07,4.88,3.21,10.15,5.8,14.8,2.66,4.69,6.84,8.34,11.58,10.84,3.77,2.16,7.36,4.6,10.87,7.16,3.44,2.65,6.71,5.56,9.6,8.79,2.76,4.02,2.37,5.01,5.16,10.07,1.78,3.71,4.57,6.84,7.51,9.69,3.01,2.98,6.4,5.59,9.18,8.79,3.8,5.36,3.8,14.67,7.39,22.97,1.24,3.1,2.3,6.3,3.97,9.2,3.09,4.71,6.97,9.98,7.89,13.55,1.77,4.92,1.1,9.74,2.82,14.88,1.89,4.09,3.66,9.11,7.89,11.26.11.06.22.11.33.15.25.11.17.07.51.2-.8-.48-1.49-1.12-2.1-1.83Z"/><path class="cls-4" d="m1347.27,175.43c-1.44-5.69-5.03-10.52-7.49-15.79-2.03-3.74-4.41-7.44-7.87-10.01-1.43-1.11-3.01-2-4.49-3.04-2.7-2.39-4.77-5.45-7.73-7.58-5.2-4.24-11.1-7.48-16.71-11.12-3.13-2.1-6.05-4.53-9.33-6.4-6.47-3.46-13.5-5.77-20.31-8.48-2.06-.51-9.97-5.69-15.61-7.58-6.59-2.11-16.24-3.13-19.29-3.66-7.9-1.6-15.91-2.92-23.67-5.12-1.77-.24-6.84-4.26-11.65-6.1-8.33-3.55-9.73-3.32-13.76-11.8-2.27-7.25-3.03-9.47-2.45-16.05.13-1.1.37-3.03.47-3.92.77-5.11,3.14-9.8,4.7-14.7,3.47-9.91,10.06-22.38,15.47-33.77-8.99,12.04-17.94,24.27-24.32,37.93-4.49,8.15-6.59,17.89-4.35,27.05,1.52,7.73,5.38,15.48,12.16,19.84,6.01,3.3,8.33,3.29,12.62,5.93,2.37,1.47,4.67,3.07,7.32,4.01,4.1,1.57,8.46,2.23,12.73,3.15,4.83.93,9.6,2.15,14.48,2.85,6.92.95,15.1,2.09,20.07,4.62,3.33,1.62,6.41,3.73,9.82,5.17,4.96,2.03,16.31,6.39,17.19,6.86,4.51,1.94,8.36,5.02,12.33,7.85,3.63,2.37,7.32,4.64,10.99,6.95,5.74,3.75,6.62,4.61,11.93,9.73,2.32,2.11,5.38,3.09,7.88,4.92.47.39,1.37,1.16,1.7,1.53,3,3.3,2.73,3.25,5.33,6.9,2.38,3.69,5.54,6.87,7.43,10.86,1.29,3.58,1.48,7.03,2,10.72.55,2.6,1.18,5.18,1.53,7.82.09.96.36,2.47.46,3.61.13-1.24.25-2.47.34-3.71.25-2.79.1-5.59.12-8.38.25-3.68.6-7.42-.07-11.08Z"/><path class="cls-4" d="m1124.35,124.56c-1.69-.15-2.81-1.61-4.02-2.63-1.69-1.45-3.67-2.49-5.51-3.75-2.58-1.81-5.61-2.79-8.45-4.1-4.29-2.01-8.66-3.87-13.13-5.45-4.97-1.86-5.53-1.47-9.33-4.12-.75-.65-2.59-2.24-2.98-2.78-.51-.48-2.03-2.34-2.66-3.1-1.54-2.08-2.97-4.27-4.05-6.63-.07-.21-.13-.42-.17-.6-.12-2.5.07-5.02.19-7.52.04-.53.1-1.07.16-1.6,0-.02,0-.03,0-.06.96-5.3.97-5.35,2.86-8.93,1.76-3.17.92-1.89,2.82-4,1.88-1.8,2.52-2.2,6.15-3.92.67-.25,2.04-.74,2.5-.84.68-.34,4.33-.77,2.58-.56,3.39-.52,6.99-.3,10.17-1.76,3.01-1.29,5.26-3.84,7.31-6.32,2.76-3.3,4.8-7.09,6.14-11.17-3.03,5.43-8.22,10.86-13.4,13.42-3.55,1.42-7.52.1-11.67.28-9.28.21-17.28,4.73-21.69,12.97-3.44,6.06-4.07,13.34-3.99,20.18.32,4.49,3.15,8.28,5.83,11.72,3.35,4.05,7.4,7.82,12.31,9.85,3.76,1.54,7.84,1.92,11.77,2.81,6.02,1.35,12.01,2.8,18.01,4.2,2.27.87,4.59,1.62,6.83,2.56,1.41.64,2.66,1.66,4.22,1.95.59.15,1.19.08,1.76-.13-.19.01-.38.03-.56.02Z"/><path class="cls-4" d="m897.67,524.11c-1.98-7.07-4.8-13.81-7.96-20.42-3.42-9.29-6.61-16.61-9.51-23.28-2.78-6.39-4.81-13.09-7.86-19.37-2.24-4.63-4.33-9.33-6.48-14-1.78-4.18-2.2-4.04-3.34-9.3-.16-1.9-.16-3.8-.12-5.7-.05-5.48.64-10.92,1.02-16.39.12-2.99.54-3.48,1.74-8.48,1.64-6.36,2.46-6.96,5.32-13.08,2.89-5.68,4.06-8.34,8.11-11.82.04-.03.08-.06.12-.09,1.92-1.46,3.94-2.78,6.12-3.81,3.16-1.44,6.49-2.49,9.81-3.46,4.85-1.4,9.65-2.95,14.58-4-5.63-.05-11.22.61-16.82,1.14-7.61.8-15.44,2.81-21.25,8.06-3.39,3.1-5.95,7-8.29,10.92-1.77,2.99-3.75,5.86-4.96,9.14-1.47,3.68-2.72,7.49-3.5,11.38-.56,3.6-.63,7.25-1.05,10.86-.56,7.92-1.55,16.33,1.7,23.81,4.34,10.27,9.75,20.22,12.4,27.65,2.55,6.66,5.3,13.26,8.32,19.72,2.59,6.34,4.77,12.84,7.8,19,2.59,5.33,3.26,7.79,5.93,14.88,2.42,6.17,4.04,8.13,5.04,13.37,1.1,4.35-1.05,14.35-1.73,22.62-.19,4.23-.17,8.47-.26,12.7-.1,2.57-.6,5.14-.36,7.72.41-2.84,1.59-5.49,2.25-8.27,1.13-5.26,2.1-10.56,3.58-15.74,2.16-7.08,4.82-14.36,3.78-21.88-.59-4.82-2.78-9.25-4.16-13.87Z"/><path class="cls-4" d="m1003.52,592.07c6.18-3.05,12.78-5.53,19.64-6.44-8.39-.56-17.02.95-24.8,4.1-8.98,3.65-13.52,14.15-12.01,23.42,3.19,17.1,13.55,30.68,8.94,42.97-2.71,8.54-6.37,13.55-15.2,20.92-5.08,5.19-10.6,7.69-17.38,13.76-4.71,4.25-8.52,9.33-12.85,13.95-2.13,2.19-4.36,4.34-7.13,5.7-.11.05-.22.11-.33.18.26-.09.53-.11.8-.18,4.27-1.02,7.91-3.59,11.4-6.13,4.57-3.37,6.97-5.65,12.15-9,4.52-3,9.53-5.15,14.08-8.11,4.4-3.11,4.25-3.22,7.72-5.86,9.44-6.56,15.42-17.4,16.8-28.74,1.55-16.63-10.18-32.23-11.82-43.05-.5-7.95,1.65-13.24,9.99-17.49Z"/><path class="cls-4" d="m1155.64,632.18c-4.77,2.53-9.5,5.26-13.54,8.88-4.62,4.11-7.98,9.32-11.54,14.32-4.29,6.12-8.4,12.41-11.32,19.31-3.03,7.02-5.7,14.23-7.85,21.57-1.12,4.69-2.66,9.41-2.39,14.29.59,6.4,3.01,12.61,6.2,18.15,2.65,4.25,6.53,7.48,10.57,10.37,4.18,3.11,8.54,6.81,13.63,11.08,1.89,1.55,3.31,3.65,5.43,4.93-.11-.11-.22-.22-.32-.33-1.35-1.47-2.1-3.36-3.25-4.97-1.89-2.52-3.19-4.31-5.28-7.05-3.47-4.5-7.51-8.51-11.13-12.87-3.42-4.75-3.73-6.26-5.32-12.23-1.02-5.14-1.44-4.81-1.04-9.56,1.24-6.19,3.08-12.26,5.04-18.25,2.35-7.09,3.2-9.3,5.51-14.72-.15.36-.31.73-.46,1.09,2.58-5.83,5.66-11.39,8.76-16.95,2.4-4.42,6.46-11.62,8.18-13.42,3.05-3.76,6.9-6.85,10.7-9.77,5.59-4.18,11.22-8.5,17.75-11.09-6.51,1.2-12.48,4.19-18.31,7.21Z"/><path class="cls-4" d="m1176.89,568.89c-1.73-.2-3.31.79-4.84,1.48-1.67.78-2.47,1.2-4.18,1.76-3.04,1.42-8.47.96-10.64.55-4.81-.62-6.51-2.03-10.95-4.92-6.74-4.51-13.96-8.22-20.82-12.54-7.08-4.44-11.62-7.83-16.1-11.61-3.94-3.72-5.33-6.78-9.46-12.83-3.87-5.27-8.17-10.18-12.94-14.65-3.73-3.72-5-7.39-8.76-13.68-1.62-2.49-3.61-4.72-5.21-7.23-2.05-3.08-3.73-6.41-6.1-9.26-4.7-4.88-6.37-4.81-11.12-9.38-5.68-5.31-11.58-10.38-18.02-14.75-4.31-3.15-9-7.92-15.46-8.51-4.17-.44-8.33.68-12.09,2.42-2.85,1.28-5.51,2.93-7.54,5.34,1.82-1.46,3.79-2.63,6.05-3.29,3.8-1.28,7.89-2.16,11.89-1.48,4.53.59,7.93,3.97,10.94,7.14,3.6,3.75,7.66,7.01,11.22,10.81,5.06,5.54,10.1,11.11,15.94,15.85,2.47,2.27,3.41,4.61,6.27,9.24,3.14,4.66,6.52,8.88,8.79,14.09,3.18,6.48,8.89,11.03,13.55,16.35,3.45,4.09,4.38,5.33,6.14,8.07,3.81,6.17,8.04,12.19,14.15,16.29,8.2,6.5,17.58,11.2,27.17,15.29,4.99,2.15,9.76,4.81,14.85,6.71,3.07.98,6.34.97,9.52.77,3.34-.14,6.64-.98,9.51-2.72,1.65-.92,3.15-2.08,4.64-3.24,1.12-.81,2.27-1.82,3.71-1.89.19-.01.39-.01.58-.01-.23-.05-.46-.1-.69-.13Z"/><path class="cls-4" d="m921.11,125.57c-.6-7.66-1.39-15.36-4.28-22.54-3.5-11.66-6.59-23.73-13.15-34.13-2.95-4.6-9-8.62-14.37-5.62-2.78,1.77-4.59,4.66-6.32,7.39-5.98,9.27-10.05,19.69-12.94,30.31-1.75,6.36-3.24,12.81-2.71,19.45.04,3.55.38,7.08.82,10.6.35,5.43.43,10.87.72,16.3.39,6.45-3.47,13.92-7.24,21.33-3.49,6.82-7.66,13.22-12.51,19.16,5.24-4.49,10.03-9.44,14.09-15.05,4.33-5.81,8.44-11.91,10.93-18.75,1.43-4.04,1.22-8.39,1.43-12.61.28-5.43.31-10.84-.17-16.25-.07-3.86-.31-7.76,0-11.62.8-4.54,2.07-8.99,3.32-13.42,3.48-10.49,5.55-15.88,11.55-25.25,1.99-2.96,1.09-2.01,3.13-4.1.13.05.23.09.31.12.35.18.69.39,1.01.62.4.35.93.96,1.26,1.36.19.27.39.53.56.81,5.9,10.02,7.82,18.92,11.47,31.6,3.56,10.73,2.73,10,3.81,21.01.66,7.45,1.51,14.89,1.35,22.38.15,1.73-1.15,6.11-2.27,10.92-.88,4.23-1.62,8.49-2.76,12.66-.88,2.65-1.58,5.34-2.38,8.01-1.53,4.49-2.97,9.01-3.78,13.69-1.19,6.83-4.72,13.03-5.76,19.89,1.57-3.98,5.42-9.54,7.83-14.07,2.26-4.5,3.33-8.06,4.92-11.24,4.84-9.26,7.53-15.36,10.4-26.19,1.56-5.15,3.51-10.31,3.29-15.79.01-7.02-.93-13.99-1.57-20.97Z"/><g><path class="cls-4" d="m745.04,341.35c2.64-5.2,5.51-10.3,8.9-15.05,3.86-5.4,4.49-6.73,8.25-10.91,5.27-5.16,12.7-12.48,15.89-14.68,7.97-5.25,16.97-9.08,23.9-15.79,6.84-6.18,21.61-21.06,15.28-30.64-1.81-2.7-4.13-5.03-6.45-7.29-1.98-1.77-3.97-3.65-6.44-4.71-4.86-2.04-10.78-2.9-15.71-.67-4.71,2.31-8.76,5.74-12.78,9.07-4.98,4.28-9.74,8.83-14.15,13.69,8.81-6.5,20.74-14.53,28.8-17.66,2.76-.65,2.18-.46,5.31.1,3.51,1.08,2.9.62,5.88,2.56.14.12.3.27.46.42,2.47,2.43,4.65,5.12,6.76,7.87-.19-.24-.31-.38-.39-.49.16.22.43.6.67,1.02.18.32.33.61.45.83.03.1.06.2.09.31,0,.09,0,.18,0,.27-1.66,4.94-5.3,9.92-11.07,15.53-2.6,2.5-7.24,6.57-7.24,6.41-5.63,3.97-11.72,7.26-17.38,11.17-4.72,3.56-8.99,7.68-13.11,11.91-3.2,3.14-6.44,6.26-9.07,9.92-5.34,7.11-10.27,14.52-14.32,22.44-6.88,11.38-11.08,24.55-10.87,37.92-.27,6.4.41,12.78.59,19.17.26,7.43.71,15.27,4.97,21.63,2.24,3.4,4.89,6.52,6.87,10.09,2.27,4.05,4.3,8.22,6.49,12.31,5.98,9.8,11.69,19.77,17.5,29.68,6.05,8.99,10.62,13.56,15.9,20.69-1.72-2.21,2.06,2.89,2.83,3.98,3.6,5.98,8.07,11.4,10.69,15.05,3.75,6.03,5.67,10.02,5.73,17.85-.58,4.07-3.19,7.84-6.63,10.05-.89.61-1.9,1.09-2.99,1.22,1.43.15,2.82-.33,4.13-.86,4.19-1.8,7.68-5.56,9.04-9.93,1.98-8.6-.5-17.61-4.89-25.08-4.41-7-7.68-14.67-12.68-21.3-5.59-8.09-9.46-11.23-13.4-18.07-5.51-9.71-11.25-19.29-16.94-28.9-2.48-4.61-4.67-9.38-7.43-13.83-2.14-3.35-4.8-6.36-6.69-9.87-2.36-4.22-2.47-9.74-2.89-18.67-.71-8.35-1.01-16.81-.3-25.17,1.89-10.11,4.01-15.78,8.48-23.56Z"/><path class="cls-4" d="m808.52,257.16c-.15-.2-.18-.23,0,0h0Z"/></g><g><path class="cls-4" d="m734.47,105.6c-7.24-2.38-10.66-4.55-18.13-7.62-9.69-3.01-15.87-6.54-26.72-10.35-5.27-1.82-10.71-3.11-16.04-4.78-4.64-1.31-9.11-3.16-13.81-4.25-7.25-1.65-14.68-2.33-22.01-3.55-6.94-1.04-13.6-3.4-20.52-4.52-6.66-1.24-13.44-1.41-20.15-2.25-4.5-.65-8.92-1.67-13.4-2.41-11.25-1.68-22.54-3.03-33.89-3.75-5.33-.56-10.62-1.4-15.95-1.86-3.74-.29-7.48-.56-11.21-1.08-8.39-1.16-16.79-3.24-25.29-1.93-6.53.75-12.97,2.08-19.24,4.04-11.74,3.17-18.98,11.22-16.15,23.84.83,3.29,2.73,6.17,4.55,8.99,1.9,3.22,4.11,6.24,6.41,9.18,1.13,1.62,2.25,3.26,3.56,4.74,4.79,5.11,11.78,7.37,17.12,11.82-2.08-1.61.83.64,1.61,1.34,4.49,3.89,7.22,6.63,8.67,9.63.76,1.56,2.15,8.15,2.26,12.1.36,5.83-.54,11.63-1,17.43-.46,4.26-.21,8.55-.29,12.83.14,2.26-.22,4.53-.1,6.79.14,1.32.85,2.49,1.16,3.77.34,1.11.43,2.28.46,3.43.02-.09.03-.17.05-.26.57-2.2.18-4.43,0-6.65,1.15-5.17,2.37-10.36,3.24-15.61,2.33-9.6,5.5-19.33,4.24-29.34-.45-4.82-1.49-9.73-4.72-13.51-3.9-5.23-9.11-9.35-14.51-12.95-3.65-2.27-10.47-6.18-10.52-6.73-2.87-3.37-8.65-11.15-12.2-18.37-.12-.37-.27-.9-.35-1.31-.03-.14-.05-.27-.07-.41-.1-1.1-.11-2.22,0-3.32.08-.36.26-1.14.46-1.78.08-.15.2-.38.38-.7.08-.14.16-.27.25-.41.08-.09.16-.19.25-.29,2.3-2,1.33-1.6,4.85-3.3-.53.21-1.04.35-.04,0,.04-.01.08-.02.12-.04.14-.07.27-.13.42-.2-.1.06-.23.13-.38.19,4.24-1.48,8.63-2.5,13-3.54,6.6-1.08,9.72-2,18.18-1.21,9.23,1.54,18.5,2.66,27.83,3.33,4.62.46,9.22,1.17,13.84,1.63,4.35.26,8.7.55,13.03,1,11.85,1.29,17.87,2.3,30.57,4.55,12.57,1.68,19.09,1.21,30.13,4.28,10.19,2.8,20.82,3.29,31.17,5.26,4,.72,7.86,1.98,11.74,3.16,5.92,1.68,11.9,3.18,17.82,4.86,7.81,2.27,15.14,5.94,22.98,8.13,8.48,1.9,16.37,5.42,24.91,7.03,11.39,2.05,23.05,1.06,34.52.25-11.09-1.26-22.39-2.04-33.12-5.33Z"/><path class="cls-4" d="m477.75,72.24s.08-.03.12-.05c-.02,0-.03,0-.05.01-.02.01-.05.02-.07.04Z"/></g><path class="cls-4" d="m182.87,390.5c-.9-9.22-3.84-18.51-2.22-27.79-3.47,9.28-1.91,19.45-2.53,29.14-.3,6.76-.69,9.24-2.16,15.75-.59,2.92-.81,5.98-1.77,8.81-.02.04-.03.06-.06.11-.03.04-.04.06-.06.1-4.55,4.91-7.96,6.12-15.18,9.99-7.35,4.38-14.49,9.12-21.27,14.35-4.46,3.58-8.94,7.18-12.92,11.29-3.47,3.66-6.43,7.78-9.64,11.67-5.18,6.83-10.92,13.5-13.81,21.69-.68,2.8-3.74,7.82-6.09,13.86-2.23,6.69-2.93,13.78-3.4,20.78-.07,4-.81,7.95-.96,11.94-.03,2.99.21,5.97.43,8.94.41,4.2.44,8.67,2.69,12.38,2.75,3.9,4.46,7.78,6.03,12.26.5,1.62,1.43,3.04,2.4,4.42-.32-.86-.64-1.73-.88-2.62-.73-4.09-.58-7.7-1.96-11.86-.65-2.01-1.62-3.95-1.95-6.05-.03-.76-.12-2.71-.04-3,.1-1.76.3-3.52.46-5.28.55-6.98,1.08-9.16,2.87-16.59,1.12-6.67,2.18-13.37,4.13-19.86,1.42-4.42,1.14-3.28,3.69-8.54,1.25-2.75,2.48-5.51,3.4-8.39.02-.05.04-.09.05-.13.1-.23.2-.47.31-.7,2.79-5.87,6.94-10.97,10.78-16.19,3.43-4.32,6.63-8.85,10.54-12.76,8.47-8.07,12.71-11.22,21.3-17.39,3.11-2.17,6.39-4.08,9.55-6.16,3.49-1.82,7-3.7,10.07-6.18,2.88-2.42,5.84-5.11,7.22-8.7.79-2.13.7-4.45.93-6.68.49-7.54,1.22-15.09.04-22.61Z"/></svg>